<svg width="265" height="255" viewBox="0 0 265 255" fill="none" xmlns="http://www.w3.org/2000/svg">
<path d="M132.397 15.6292C163.146 15.6292 192.635 27.383 214.377 48.305C236.12 69.2271 248.334 97.6034 248.334 127.192C248.334 156.78 236.12 185.156 214.377 206.078C192.635 227 163.146 238.754 132.397 238.754C101.648 238.754 72.1593 227 50.4168 206.078C28.6743 185.156 16.4595 156.78 16.4595 127.192C16.4595 97.6034 28.6743 69.2271 50.4168 48.305C72.1593 27.383 101.648 15.6292 132.397 15.6292ZM117.954 149.201L92.1998 124.403C91.2765 123.514 90.1804 122.809 88.974 122.329C87.7677 121.848 86.4747 121.6 85.169 121.6C83.8633 121.6 82.5703 121.848 81.364 122.329C80.1576 122.809 79.0615 123.514 78.1382 124.403C76.2735 126.197 75.226 128.631 75.226 131.168C75.226 133.706 76.2735 136.139 78.1382 137.934L110.932 169.49C111.853 170.383 112.948 171.091 114.155 171.575C115.361 172.059 116.656 172.308 117.963 172.308C119.27 172.308 120.564 172.059 121.771 171.575C122.978 171.091 124.073 170.383 124.994 169.49L192.9 104.13C193.835 103.245 194.58 102.191 195.09 101.028C195.6 99.8651 195.866 98.6165 195.872 97.3542C195.878 96.0919 195.624 94.841 195.125 93.6735C194.627 92.506 193.892 91.4451 192.965 90.552C192.038 89.6589 190.937 88.9512 189.724 88.4699C188.511 87.9885 187.212 87.7429 185.9 87.7473C184.588 87.7517 183.29 88.0059 182.081 88.4954C180.872 88.9849 179.775 89.6999 178.855 90.5992L117.954 149.201Z" fill="#10A820"/>
</svg>
