<svg width="351" height="91" viewBox="0 0 351 91" fill="none" xmlns="http://www.w3.org/2000/svg">
<path d="M52.0925 0.410263C52.4221 0.520147 53.0814 0.520147 53.466 0.410263C53.7956 0.245438 53.5209 0.135555 52.7518 0.135555C51.9826 0.135555 51.7079 0.245438 52.0925 0.410263Z" fill="#4B7189"/>
<path d="M39.6678 0.2454C39.8327 0.465166 39.0085 0.959641 37.8548 1.34423C35.2725 2.05847 34.5033 2.11342 35.6022 1.39917C36.3164 0.959641 36.3164 0.849758 35.4923 0.849758C34.1737 0.849758 33.844 1.72882 34.833 2.55295C35.5472 3.10237 36.1516 2.99248 38.4591 1.83871C40.6568 0.794816 41.0414 0.410225 40.3271 0.135516C39.8327 -0.08425 39.503 -0.0293086 39.6678 0.2454Z" fill="#4B7189"/>
<path d="M54.8644 0.987161C56.7324 1.59152 58.1609 1.59152 56.7873 0.987161C56.183 0.712453 55.194 0.547628 54.5897 0.547628C53.7106 0.547628 53.7656 0.657511 54.8644 0.987161Z" fill="#4B7189"/>
<path d="M40.7118 1.61903C39.4481 2.38821 37.9647 3.04751 37.4153 3.21233C36.4813 3.4321 36.4813 3.4321 37.3604 3.81669C37.9647 4.0914 39.1185 3.65187 40.7667 2.49809C42.1952 1.56408 43.294 0.685019 43.294 0.575135C43.294 0.190544 43.1842 0.190544 40.7118 1.61903Z" fill="#4B7189"/>
<path d="M43.0193 1.89366C42.1952 2.82767 40.9865 3.6518 40.3272 3.76168C39.2283 3.9265 39.2283 3.98145 40.2173 4.42098C41.4809 4.9704 42.4699 4.36604 43.8984 2.05849C45.3269 -0.139177 45.0522 -0.194118 43.0193 1.89366Z" fill="#4B7189"/>
<path d="M45.4917 1.50912C45.4917 1.83877 44.9423 2.71784 44.283 3.43208L43.1292 4.69574H44.7225C46.2609 4.69574 46.3707 4.58586 46.151 2.77278C45.9312 0.959708 45.4917 0.0806417 45.4917 1.50912Z" fill="#4B7189"/>
<path d="M46.9202 2.49811C47.3597 4.91554 47.3048 4.80566 49.1728 4.53095C50.5463 4.31118 50.6013 4.25624 49.5574 3.92659C48.953 3.70682 48.019 2.8827 47.4696 2.05857L46.5356 0.575149L46.9202 2.49811Z" fill="#4B7189"/>
<path d="M49.5574 2.38817C50.6013 3.487 51.7001 4.1463 52.5792 4.1463H54.0077L52.6341 3.43206C51.8649 3.04747 50.5463 2.22334 49.6123 1.67393L47.9641 0.630036L49.5574 2.38817Z" fill="#4B7189"/>
<path d="M53.3483 2.49808C55.1065 3.48703 55.546 3.54197 56.48 2.88267C57.469 2.16843 57.414 2.16843 55.7658 2.11348C54.7768 2.11348 53.4033 1.94866 52.6341 1.72889C51.755 1.45418 51.9748 1.72889 53.3483 2.49808Z" fill="#4B7189"/>
<path d="M24.1194 5.57478C21.3723 7.00326 19.1197 8.3768 19.1197 8.59657C19.1197 9.36575 19.6142 9.20093 21.4272 7.93727C22.3063 7.27797 24.7237 5.90443 26.7016 4.91548C28.7345 3.92653 30.108 3.1024 29.7234 3.04746C29.3938 3.04746 26.8115 4.20124 24.1194 5.57478Z" fill="#B58C54"/>
<path d="M26.4132 5.57784C23.5013 7.72056 23.3227 7.66563 21.9217 8.6683L20.6031 9.42376L21.9217 10.4677C22.7458 11.1269 23.4601 11.3467 23.8447 11.0171C24.1743 10.7424 26.2072 9.25893 28.2949 7.66563C33.0199 4.14936 32.5941 4.76377 31.8112 4.36913C30.1217 3.51752 30.7398 3.10546 26.4132 5.57784Z" fill="#B58C54"/>
<path d="M37.0856 7.34666L31.9348 13.8375L34.5583 13.5963C31.3167 13.4315 30.7673 14.2556 33.844 14.805C37.4702 15.4094 37.5801 15.3544 38.9536 11.6733C39.6679 9.80531 40.3272 8.10212 40.437 7.82741C40.5469 7.60765 37.3603 7.34666 37.0856 7.34666C31.9348 13.8375 31.809 13.9961 37.0856 7.34666Z" fill="#B58C54"/>
<path d="M11.7575 14.6402C9.77958 16.7829 8.13133 19.0355 8.13133 19.6399C8.13133 20.5189 8.40604 20.3541 9.61476 18.8707C10.3839 17.8817 12.4168 15.6291 14.12 13.871C16.0979 11.8931 16.8671 10.7393 16.2627 10.7393C15.7682 10.7393 13.7354 12.4974 11.7575 14.6402Z" fill="#4480A0"/>
<path d="M74.0613 12.6623C74.0613 12.882 79.8302 20.2442 81.5334 22.2221C81.6433 22.332 82.2476 22.0023 82.7971 21.5079C83.841 20.5739 83.7311 20.464 79.9401 16.4532C77.7974 14.2006 75.5997 12.3876 75.0503 12.3876C74.5009 12.3876 74.0613 12.4974 74.0613 12.6623Z" fill="#4480A0"/>
<path d="M13.131 17.717C9.44996 21.6728 9.23019 22.0024 10.1642 22.7166C12.8014 24.6945 12.9113 24.6396 15.3287 21.0684C16.5924 19.1454 18.2406 16.9478 19.0098 16.1236C20.5482 14.4205 20.5482 14.3106 18.5153 13.871C17.2517 13.5414 16.5924 14.0359 13.131 17.717Z" fill="#4480A0"/>
<path d="M71.1495 15.1896C70.6 15.5192 69.7759 15.6291 69.3364 15.4643C68.2376 15.0248 68.2925 15.0797 70.9297 19.0904C72.1933 21.0683 73.6768 23.4308 74.1712 24.4198L75.1053 26.1779L77.193 25.2989C80.2148 24.0352 80.3247 23.7605 78.3468 21.4529C73.3471 15.5742 72.1933 14.5852 71.1495 15.1896Z" fill="#4480A0"/>
<path d="M20.3833 18.2664C19.5043 19.4201 18.1857 21.2882 17.5264 22.387C16.8671 23.5408 16.0429 24.4748 15.7682 24.4748C15.4935 24.4748 15.2738 24.6945 15.2738 25.0242C15.2738 25.4637 20.1636 27.2219 21.592 27.2219C21.9217 27.2219 23.3502 24.8594 24.7787 22.0024C27.0313 17.4422 27.1961 16.7829 26.317 16.7829C25.7676 16.7829 24.5589 16.6181 23.6798 16.4533C22.2513 16.1786 21.8118 16.3984 20.3833 18.2664Z" fill="#4581A1"/>
<path d="M30.5491 6.76403C29.6136 7.52632 28.1867 8.77943 27.4448 9.53761C26.6935 10.3397 25.8419 10.9364 25.6118 10.8867C25.3816 10.837 25.1596 10.9727 25.1028 11.236C25.027 11.5869 28.8204 13.8757 30.0172 14.1342C30.2934 14.1938 31.8976 12.5657 33.5871 10.5428C36.2608 7.30883 36.5126 6.81217 35.7761 6.6531C35.3158 6.55369 34.3316 6.20336 33.6236 5.91268C32.4742 5.43483 32.068 5.5308 30.5491 6.76403Z" fill="#B58C54"/>
<path d="M63.2928 17.6071L60.5457 18.1565L62.2489 22.9364C63.1829 25.5736 64.062 27.8812 64.2817 28.046C64.4466 28.2108 66.2047 28.1009 68.2375 27.7164C71.7538 27.112 73.1273 26.3978 72.0285 25.6286C71.7538 25.4637 70.4901 23.4859 69.1715 21.2882C67.8529 19.0905 66.6442 17.2225 66.4245 17.1676C66.2596 17.0577 64.8311 17.2774 63.2928 17.6071Z" fill="#4480A0"/>
<path d="M29.2839 19.1454C28.8444 19.8047 27.9653 21.5629 27.306 23.1012C26.6467 24.5846 25.8775 26.0131 25.5479 26.178C24.3941 26.9471 25.7127 28.2108 28.0202 28.4855C29.9432 28.7053 30.7673 28.4855 32.5254 27.2218C34.3935 25.9582 34.8879 25.189 35.7121 22.2771C36.2065 20.3541 36.5911 18.7059 36.5362 18.6509C36.4812 18.6509 34.9978 18.4312 33.2397 18.2664C30.4377 17.9916 29.9981 18.1015 29.2839 19.1454Z" fill="#4581A1"/>
<path d="M52.744 18.8158L49.8321 19.0356L49.9969 21.0684C50.1617 22.8815 50.3815 23.1013 52.7989 23.9803C54.2824 24.5298 56.5899 25.6835 58.0184 26.6175C60.8204 28.4306 61.2599 28.2658 60.271 25.7934C59.8864 24.9144 59.5567 24.0902 59.5567 23.9254C59.5018 23.7606 59.282 23.321 59.0623 22.9365C58.7876 22.6068 58.7326 22.2772 58.8974 22.2772C59.0623 22.2772 58.7326 21.453 58.1832 20.4641C57.1393 18.5411 57.0294 18.5411 52.744 18.8158Z" fill="#4480A0"/>
<path d="M38.5141 21.508L37.9097 24.0353L39.3932 23.7056C40.1623 23.4859 42.2501 23.2112 44.0083 22.9914C47.1399 22.6617 47.1399 22.6617 47.1399 20.8487V18.9806H43.1292H39.0635L38.5141 21.508Z" fill="#4480A0"/>
<path d="M3.46133 25.9581C1.81308 29.5293 0.769189 33.4302 1.09884 34.4741C1.26366 34.8587 1.7032 34.1994 2.08779 32.9907C2.47238 31.782 3.62615 29.1448 4.6151 27.1119C6.75783 22.8814 6.75783 22.8265 5.71394 22.8265C5.2744 22.8265 4.28545 24.255 3.46133 25.9581Z" fill="#726183"/>
<path d="M84.72 24.9142L83.5663 25.9032L84.775 28.3756C85.4343 29.6942 86.4232 32.1665 87.0276 33.8148C88.2912 37.6058 88.1264 37.4959 89.5 36.2322C90.3241 35.518 90.5438 34.8037 90.3241 33.7049C89.8845 31.6171 86.6979 23.9253 86.2584 23.9253C86.0386 23.9802 85.3244 24.4198 84.72 24.9142Z" fill="#726183"/>
<path d="M5.38429 28.1558C3.6811 31.9468 2.63721 34.9136 2.63721 36.0125C2.63721 36.9465 5.71394 39.309 6.92266 39.309C7.19736 39.309 7.6369 38.4299 7.80172 37.386C8.02149 36.3421 8.90055 33.65 9.77962 31.5072C10.6587 29.3096 11.318 27.5514 11.263 27.5514C11.2081 27.4965 10.329 27.057 9.34009 26.5076C8.2962 26.0131 7.25231 25.5735 7.03254 25.5735C6.75783 25.5735 5.98865 26.7273 5.38429 28.1558Z" fill="#726183"/>
<path d="M79.3907 28.5404C77.5227 29.3096 76.8084 29.914 77.0282 30.5183C77.193 30.9578 77.9622 33.5401 78.7863 36.2872C79.6104 38.9793 80.3247 41.2869 80.3796 41.3968C80.7093 41.7814 86.6979 38.7596 86.6979 38.2651C86.6979 37.1663 83.2915 28.3756 82.6872 27.8811C82.2476 27.6064 81.0389 27.8262 79.3907 28.5404Z" fill="#726183"/>
<path d="M12.2519 30.8479C10.7136 34.584 9.23016 40.0781 9.61475 40.4627C10.1092 40.9023 17.5813 43.2648 17.7461 43.045C17.8011 42.9351 18.4054 40.6276 19.0647 37.9354C19.724 35.1883 20.3833 32.4413 20.5481 31.727C20.8228 30.7381 20.658 30.5183 19.6141 30.5183C18.8999 30.5183 17.1418 30.1337 15.6583 29.6942L13.0761 28.925L12.2519 30.8479Z" fill="#726183"/>
<path d="M69.0067 31.5072C66.9189 31.9468 65.2707 32.6061 65.2707 32.9357C65.2707 33.2654 65.7652 35.2982 66.3695 37.386C66.9739 39.4738 67.4684 41.8912 67.4684 42.7153C67.4684 44.5284 67.1387 44.4735 72.9076 43.3197L77.4677 42.4406L77.1381 40.5177C76.9733 39.4738 76.314 36.7816 75.6547 34.584C74.3361 30.0238 74.6657 30.1887 69.0067 31.5072Z" fill="#726183"/>
<path d="M167.352 45.7372C167.242 53.8686 166.968 60.9011 166.693 61.3956C166.308 62.2746 166.528 62.3845 168.506 62.3845C170.923 62.3845 171.033 62.2746 170.209 60.8462C169.605 59.8023 168.616 38.2102 169.22 37.8805C169.385 37.7707 170.978 39.1991 172.791 41.0672C182.681 51.7258 193.559 62.3296 194.054 61.8351C194.329 61.5604 194.658 55.0773 194.823 47.0558L195.098 32.771L196.416 32.3314C197.295 32.0018 196.252 31.8919 193.285 31.8919C190.098 31.8919 189.274 32.0018 190.483 32.3314C191.801 32.6611 192.186 33.1006 192.461 34.5291C192.9 37.1114 193.065 56.8904 192.68 56.7805C192.461 56.6706 186.802 50.8468 180.099 43.8142C173.396 36.8367 167.792 31.0678 167.682 31.0678C167.572 31.0678 167.407 37.6608 167.352 45.7372Z" fill="#4480A0"/>
<path d="M256.742 31.4524C249.545 32.3864 244.6 36.1224 242.952 41.8364C240.37 50.7919 244.82 59.4177 253.336 61.945C256.358 62.8241 265.533 62.8241 268.06 61.945L270.093 61.2308L270.148 55.6267C270.203 52.55 270.368 49.4733 270.588 48.759C270.862 47.6602 270.697 47.5503 268.72 47.5503H266.632L266.852 53.7038C267.071 61.1209 266.961 61.2857 261.193 61.2857C254.655 61.2857 249.655 58.0991 247.128 52.3302C245.479 48.5942 245.205 45.023 246.248 41.3419C248.007 35.2434 252.072 32.4963 259.325 32.5512C263.775 32.6062 268.28 34.0896 268.884 35.6829C269.489 37.2762 270.203 36.562 270.203 34.4742V32.3315L265.038 31.7271C262.182 31.3425 259.489 31.1227 259.105 31.1227C258.72 31.1777 257.676 31.3425 256.742 31.4524Z" fill="#4480A0"/>
<path d="M291.905 31.6171C286.301 32.7709 283.059 35.1884 280.697 39.9683C279.268 42.7703 278.994 43.979 278.994 47.2755C278.994 57.0002 286.356 63.5932 296.3 62.824C305.366 62.0548 311.574 55.5168 311.629 46.7261C311.684 41.6165 310.75 39.254 307.563 36.0674C303.772 32.2764 297.399 30.4634 291.905 31.6171ZM301.41 34.1445C309.102 38.6497 310.365 52.9345 303.553 58.9231C300.751 61.3955 297.674 62.1647 293.828 61.3406C289.488 60.4615 286.795 58.3737 284.653 54.1982C283.059 51.1214 282.84 50.2424 282.84 46.2866C282.895 38.4849 285.697 34.2543 291.905 32.661C294.542 32.0017 298.828 32.661 301.41 34.1445Z" fill="#4480A0"/>
<path d="M330.639 31.6721C322.837 33.2105 317.563 39.9133 317.837 47.8249C318.057 53.8136 321.079 58.6484 326.134 61.1208C330.309 63.1537 337.122 63.3185 341.243 61.4505C344.594 59.9121 347.945 56.5057 349.429 53.1543C350.912 49.9127 351.022 43.3747 349.649 40.243C346.902 33.9247 338.386 30.0788 330.639 31.6721ZM337.616 32.9907C340.913 33.9796 344.1 36.8916 345.638 40.3529C347.121 43.7043 347.231 50.627 345.858 54.2531C341.737 64.9667 326.683 63.813 322.672 52.44C321.683 49.7479 321.519 43.3197 322.343 40.4628C323.496 36.6718 326.738 33.7049 330.914 32.661C333.496 32.0567 334.65 32.1116 337.616 32.9907Z" fill="#4480A0"/>
<path d="M22.9656 33.7598C22.636 34.8586 22.0866 37.4409 21.7569 39.4737C21.2075 42.6603 21.2075 43.3196 21.8668 43.7042C23.4051 44.6932 23.8996 44.2537 24.2293 41.4516C24.504 39.254 26.1522 34.9136 27.7455 32.1665C27.8554 32.0017 26.9214 31.8368 25.7127 31.8368C23.6799 31.727 23.515 31.8368 22.9656 33.7598Z" fill="#726183"/>
<path d="M96.9171 32.0566C97.5764 32.1665 98.5104 32.661 99.0049 33.2104C99.4993 33.7598 101.752 40.0781 103.95 47.3304C109.169 64.0876 108.839 63.2086 109.718 62.2196C110.048 61.7801 112.301 56.3409 114.718 50.2423C117.081 44.0889 119.223 38.9793 119.553 38.8694C119.828 38.8145 120.212 39.3089 120.432 40.0781C120.927 42.1659 128.289 61.835 128.673 62.2196C129.443 62.9888 130.322 60.901 134.827 47.77C137.409 40.243 139.881 33.7049 140.376 33.1555C140.815 32.661 141.749 32.1665 142.409 32.0566C143.013 31.9468 141.475 31.8918 138.947 31.8918C136.42 31.8918 134.937 32.0017 135.651 32.1665C136.365 32.3314 137.024 32.8808 137.134 33.3203C137.299 34.2543 130.816 55.7914 130.157 56.4507C129.937 56.7254 127.794 51.451 125.432 44.8031C123.014 38.1552 120.762 32.7159 120.432 32.7159C120.102 32.7159 117.795 38.0453 115.268 44.5284C111.037 55.5717 109.828 57.6595 109.444 54.9124C109.334 54.363 108.18 50.0226 106.807 45.3525C103.455 33.65 103.345 32.8258 104.719 32.3314C105.378 32.0566 103.73 31.8918 100.818 31.8918C98.0159 31.8918 96.3127 31.9468 96.9171 32.0566Z" fill="#4581A1"/>
<path d="M149.002 32.4413C150.101 32.9907 150.155 33.4302 150.155 46.7261C150.155 54.308 150.046 60.8461 149.881 61.2856C149.661 61.9449 150.21 62.1647 152.298 62.2746C154.716 62.4394 154.935 62.3295 154.496 61.4505C153.946 60.2967 153.507 35.9026 154.001 33.9247C154.166 33.2654 154.771 32.4962 155.375 32.2764C155.924 32.0567 154.496 31.8919 152.133 31.8919C148.837 31.8919 148.123 32.0017 149.002 32.4413Z" fill="#4581A1"/>
<path d="M206.471 45.7372C206.471 53.5389 206.306 60.4616 206.141 61.1209C205.811 62.2746 205.976 62.3845 207.844 62.3845C209.602 62.3845 209.822 62.2197 209.438 61.3956C209.053 60.5165 208.009 38.1553 208.339 37.8256C208.449 37.7157 210.811 40.0782 213.668 42.9901C223.338 53.0994 232.733 62.3845 233.337 62.3845C233.722 62.3845 233.996 57.6046 234.051 47.7151C234.216 33.4852 234.271 32.9907 235.37 32.4413C236.194 32.0018 235.48 31.8919 232.073 31.8919C229.601 31.8919 228.283 31.9469 229.107 32.0567C229.876 32.1666 230.81 32.5512 231.085 32.8809C231.579 33.5402 232.623 56.8904 232.128 56.8904C231.909 56.8904 228.447 53.3741 214.987 39.309C211.031 35.2433 207.515 31.837 207.185 31.7271C206.635 31.5623 206.471 34.639 206.471 45.7372Z" fill="#4480A0"/>
<path d="M0 39.309C0 40.0782 0.109883 40.3529 0.274708 39.9683C0.384591 39.6386 0.384591 38.9793 0.274708 38.5947C0.109883 38.2651 0 38.5398 0 39.309Z" fill="#4581A1"/>
<path d="M90.1043 40.6826C89.445 41.0122 89.0055 41.5616 89.1703 41.9462C89.3351 42.3857 89.445 45.1878 89.5 48.2096L89.5549 53.7587L90.7087 52.55C91.6427 51.6159 91.9174 50.5721 92.0822 47.3854C92.1921 45.2427 92.0822 42.6605 91.8075 41.7814C91.4229 40.298 91.2031 40.1881 90.1043 40.6826Z" fill="#4480A0"/>
<path d="M1.31862 41.8363C1.15379 42.3307 0.988968 44.858 0.988968 47.5502C0.988968 52.8246 1.26368 53.4289 4.34041 54.9673L5.93372 55.8464V50.7368C5.93372 47.9348 6.09854 45.0778 6.26337 44.3636C6.53807 43.4845 6.37325 43.1549 5.65901 43.1549C5.16453 43.1549 4.01076 42.6604 3.18663 42.056C1.81309 41.122 1.59333 41.0671 1.31862 41.8363Z" fill="#4581A1"/>
<path d="M84.1157 44.4186L81.2587 45.6273L81.3686 51.7258L81.4785 57.8793L84.2255 56.7804C85.7639 56.1761 87.1375 55.5717 87.3572 55.352C88.1264 54.5828 88.1813 43.1549 87.4122 43.2099C87.1375 43.2099 85.709 43.7593 84.1157 44.4186Z" fill="#4480A0"/>
<path d="M8.40609 46.0668C8.24127 46.7261 8.13138 49.4732 8.24127 52.2203L8.40609 57.165L12.5267 58.3188C15.3287 59.1429 16.7023 59.3078 16.7572 58.8682C16.8122 58.5386 16.977 55.6267 17.0869 52.3851C17.1968 48.3744 17.0869 46.6163 16.7023 46.7811C16.3726 46.891 14.4497 46.5064 12.4168 45.957L8.6808 44.8581L8.40609 46.0668Z" fill="#4581A1"/>
<path d="M74.6108 47.2755C72.9625 47.715 70.7648 48.0996 69.8308 48.2095L68.0178 48.3194V54.5278C68.0178 61.7251 67.5782 61.3405 74.336 59.7472L78.182 58.8132L78.4567 56.5606C78.8413 53.8685 78.4567 46.4514 77.9622 46.5063C77.7974 46.5063 76.259 46.8909 74.6108 47.2755Z" fill="#4480A0"/>
<path d="M20.2185 54.0882V60.0769L21.7569 60.4065C22.581 60.5714 24.3391 60.8461 25.7127 61.0109C27.0862 61.1757 28.8443 61.4504 29.7234 61.6153C30.6025 61.7801 31.2068 61.6702 31.2068 61.3405C31.2068 61.0109 30.8772 60.7362 30.4926 60.7362C28.7894 60.7362 23.4051 49.5281 24.1743 48.2095C24.1743 48.2095 22.8694 48.0052 23.6936 48.4173C22.6634 47.7974 24.1257 48.9393 24.1743 48.0447H20.2185V54.0882Z" fill="#4581A1"/>
<path d="M89.2252 58.4836C88.7308 59.4176 88.3462 60.2967 88.3462 60.4615C88.4011 61.0658 87.6319 63.758 87.3023 64.3074C86.643 65.2963 85.5991 67.8786 85.8738 67.8786C86.2584 67.8786 89.2252 61.835 89.9944 59.4725C90.8186 56.8353 90.379 56.231 89.2252 58.4836Z" fill="#BC6C6F"/>
<path d="M2.08778 58.2089C2.08778 59.3077 4.72498 66.2853 5.54911 67.3292C6.37323 68.428 8.73572 70.0763 9.44996 70.0763C9.72467 70.0763 9.44996 69.5269 8.79066 68.8126C7.52701 67.494 5.9337 63.4833 5.9337 61.7801C5.9337 61.1757 5.38428 60.2967 4.77992 59.7473C4.12062 59.2528 3.2965 58.4836 2.85697 58.099C2.19767 57.4947 2.08778 57.4947 2.08778 58.2089Z" fill="#BC6C6F"/>
<path d="M63.6239 58.2791C63.2516 58.8369 62.2263 59.684 61.2998 60.0342C59.94 60.6689 61.8827 60.4302 62.875 60.573C64.9159 60.9125 64.9275 60.0637 64.8934 58.5257C64.8568 56.8779 64.6359 56.8278 63.6239 58.2791Z" fill="#4581A1"/>
<path d="M86.4232 59.6374C86.2035 59.967 85.1046 60.6263 83.9508 61.0658C81.9729 61.89 81.8081 62.1097 80.9291 65.6809C80.4346 67.7687 79.5555 69.8565 78.9512 70.4059C77.1381 71.9992 77.7974 72.2739 80.7093 71.0652C83.786 69.7466 84.3354 68.9774 86.0936 63.2635C87.1924 59.7472 87.3023 58.1539 86.4232 59.6374Z" fill="#BC6C6F"/>
<path d="M9.01042 62.2196C9.94442 66.6149 11.6476 70.7355 12.6915 71.3948C14.3398 72.3838 19.0647 73.5925 19.5592 73.153C19.779 72.9332 19.8614 73.2097 19.3669 72.935C18.5978 72.4954 18.3883 69.4324 17.1006 64.2816C16.8808 63.4026 15.7133 63.4283 13.7903 62.9888C12.3069 62.6042 10.6037 61.9449 9.88948 61.5054C8.68077 60.7362 8.68077 60.7362 9.01042 62.2196Z" fill="#BC6C6F"/>
<path d="M156.364 62.2196C156.749 62.3844 157.243 62.3295 157.408 62.1646C157.628 61.9998 157.298 61.835 156.694 61.8899C156.089 61.8899 155.924 62.0547 156.364 62.2196Z" fill="#7BCADB"/>
<path d="M164.605 62.2196C164.99 62.3844 165.484 62.3295 165.649 62.1646C165.869 61.9998 165.539 61.835 164.935 61.8899C164.33 61.8899 164.166 62.0547 164.605 62.2196Z" fill="#7BCADB"/>
<path d="M211.306 62.2196C211.69 62.3844 212.185 62.3295 212.349 62.1646C212.569 61.9998 212.24 61.835 211.635 61.8899C211.031 61.8899 210.866 62.0547 211.306 62.2196Z" fill="#7BCADB"/>
<path d="M74.8855 63.813C73.402 64.1976 71.2044 64.6371 70.0506 64.8569C68.0178 65.1865 66.3695 65.2844 67.6881 65.724C68.5672 65.9987 68.4573 64.6294 67.4134 65.6184C66.9739 66.1129 65.0211 77.7682 66.01 74.0871C66.8891 74.0871 67.4683 72.9333 66.4244 73.7574C64.8861 74.8563 65.9849 74.9662 70.2154 74.0871C72.7977 73.5926 74.6657 72.8784 75.2151 72.274C76.0392 71.2851 78.2918 63.5932 77.8523 63.3185C77.7424 63.2086 76.4238 63.4284 74.8855 63.813Z" fill="#BC6C6F"/>
<path d="M21.0426 66.8897C22.0865 74.3068 22.3063 74.5266 29.174 75.2408C33.0748 75.6804 33.7341 75.2408 31.976 73.5376C31.3717 72.8783 32.166 75.5155 32.6055 75.2408C33.2648 74.8013 31.976 65.626 31.2618 65.7909C30.4926 66.0106 23.4051 65.0766 22.0865 64.5821L20.658 64.0327L21.0426 66.8897Z" fill="#BC6C6F"/>
<path d="M63.5125 65.4612C63.2928 65.626 60.6556 66.0106 57.5239 66.2853C54.4472 66.5051 51.8649 66.8347 51.81 66.8896C51.7001 66.9995 51.5353 69.1423 51.4254 71.6696L51.2606 76.2847L56.6998 75.9001C59.7216 75.7353 62.3588 75.2957 62.5236 74.9661C62.9631 74.2518 64.3367 65.626 64.007 65.3513C63.8971 65.2414 63.6774 65.2963 63.5125 65.4612Z" fill="#BC6C6F"/>
<path d="M35.767 70.5708C35.9318 72.9882 36.2065 75.1859 36.4263 75.5155C36.646 75.9001 38.9536 76.1199 42.2501 76.1199H47.6893V71.8344L47.6893 67.1094H45.3268C44.173 67.2193 37.635 66.8365 35.767 66.342C35.2313 66.2002 35.3824 65.626 35.767 70.5708Z" fill="#BC6C6F"/>
<path d="M8.95548 72.8783C11.0982 75.5705 15.054 79.5263 16.0979 80.0757C17.4165 80.8449 10.8235 73.5376 9.06536 72.3289L7.85664 71.5048L8.95548 72.8783Z" fill="#4480A0"/>
<path d="M78.8962 74.5266C77.7424 75.1859 76.314 76.5045 75.7096 77.5484C75.0503 78.5373 73.6218 80.1306 72.523 81.0646L70.4901 82.7678L72.4131 82.0536C74.391 81.3943 79.3907 76.7792 80.5994 74.5815C80.9291 73.9222 81.1488 73.3728 81.0939 73.4277C80.984 73.4277 79.995 73.9222 78.8962 74.5266Z" fill="#4480A0"/>
<path d="M14.5046 75.9551C16.5924 79.3614 20.0537 82.4931 22.4162 83.2073C25.1633 84.0315 25.7676 83.7018 23.8996 82.4931C23.1854 81.9986 22.1415 80.6251 21.5921 79.4164C20.768 77.6033 20.1636 77.1088 18.3505 76.5594C17.0869 76.1748 15.4936 75.5155 14.7244 75.076L13.3508 74.1969L14.5046 75.9551Z" fill="#4B7189"/>
<path d="M71.3142 76.999C70.2703 77.3835 68.8419 77.7132 68.1826 77.7132C66.0948 77.7681 65.2707 78.4274 64.3916 80.4603C63.9521 81.5042 63.018 82.9876 62.4137 83.6469C61.0401 85.1303 61.0401 85.0754 64.8311 84.3062C66.4244 83.9765 68.3474 83.1524 69.0616 82.4931C70.4352 81.2295 73.7317 76.6693 73.402 76.4495C73.3471 76.3946 72.3581 76.6144 71.3142 76.999Z" fill="#4480A0"/>
<path d="M24.0645 77.6033C24.0645 78.5373 27.4159 83.8117 28.3499 84.3062C29.8333 85.0754 35.6022 85.6798 35.6022 85.0205C35.6022 84.6908 35.3824 84.3612 35.0528 84.2513C34.7781 84.1414 34.4484 83.4821 34.2836 82.7129C34.1737 81.9437 34.0089 81.2295 33.9539 81.0647C33.899 80.8998 33.7891 80.4054 33.7342 79.9658C33.6792 79.3615 32.5255 78.9769 29.5586 78.5923C27.306 78.2626 25.1083 77.8231 24.7787 77.6033C24.3941 77.3286 24.0645 77.3286 24.0645 77.6033Z" fill="#4480A0"/>
<path d="M58.6777 78.9768C57.3041 79.1417 55.0515 79.3614 53.623 79.3614C51.2606 79.4164 51.0408 79.5263 50.7661 81.0646C50.6013 81.9437 50.2716 83.4821 50.1068 84.471L49.7771 86.1742L52.689 85.8445C54.3373 85.6248 56.3701 85.46 57.1943 85.46C58.5129 85.46 58.9524 85.0754 60.1062 82.4382C60.8753 80.7899 61.4248 79.1966 61.3149 78.9768C61.205 78.7571 60.0512 78.7571 58.6777 78.9768Z" fill="#4480A0"/>
<path d="M37.0307 80.7899C37.1955 81.6689 37.69 83.2623 38.1295 84.1963L38.8437 86.0093H42.9094H46.9751L47.3597 82.9326C47.5795 81.2294 47.6344 79.746 47.5795 79.691C47.4696 79.5812 44.9972 79.4163 42.0304 79.3065L36.6461 79.1416L37.0307 80.7899Z" fill="#4480A0"/>
<path d="M67.6881 85.2402C66.6992 86.0094 66.6992 86.0644 67.9079 85.46C68.5672 85.1304 69.1166 84.7458 69.1166 84.6359C69.1166 84.1964 68.8419 84.3062 67.6881 85.2402Z" fill="#4480A0"/>
<path d="M24.6138 85.6797C24.6138 86.1192 28.8443 88.207 29.6685 88.207C30.0531 88.207 29.6685 87.7126 28.7345 87.1631C26.9214 86.0643 24.6138 85.1852 24.6138 85.6797Z" fill="#4480A0"/>
<path d="M62.2489 86.8335C59.1721 87.8224 55.4911 89.8003 56.5899 89.8553C57.9085 89.8553 63.1829 87.7675 64.1718 86.7786C65.1058 85.8445 65.1058 85.8445 62.2489 86.8335Z" fill="#4480A0"/>
<path d="M31.2068 87.3829C31.6464 87.8774 31.5914 88.1521 31.097 88.3719C30.7124 88.5367 30.8772 88.6466 31.4816 88.6466C32.0859 88.6466 33.5693 89.0312 34.7781 89.5257C35.9868 89.9652 37.5801 90.3498 38.3493 90.4047C39.6679 90.4047 39.6129 90.3498 37.7998 89.2509C35.4374 87.7675 30.3827 86.394 31.2068 87.3829Z" fill="#4480A0"/>
<path d="M55.6559 87.6576C55.0515 87.9324 53.6231 88.1521 52.4143 88.1521C50.9309 88.2071 49.9969 88.5917 49.2827 89.4158C48.6783 90.0201 48.3487 90.6794 48.4585 90.7893C49.1728 91.5585 54.0626 90.0751 55.601 88.7015C57.414 87.0533 57.414 86.8885 55.6559 87.6576Z" fill="#4480A0"/>
<path d="M39.4481 88.262C39.4481 88.4268 39.9975 89.0861 40.7117 89.7454C41.5908 90.5695 42.6896 90.9541 44.2829 90.9541C45.5466 90.9541 46.5905 90.7893 46.5905 90.5146C46.5905 90.2948 46.7553 89.6355 46.9201 89.0311C47.1948 87.9873 46.9201 87.9323 43.3489 87.9323C41.2062 87.9323 39.4481 88.0971 39.4481 88.262Z" fill="#4480A0"/>
<path d="M46.3525 32.965H33.8796C33.3894 32.965 32.9889 33.4041 32.9889 33.9455L32.965 55.2166C32.965 55.7613 33.3625 56.2004 33.8557 56.2004H43.0049L43.253 56.7385C43.4054 57.0687 43.7103 57.2766 44.048 57.2766H48.7108C49.0366 57.2766 49.3355 57.0786 49.4939 56.7649L49.7719 56.2037H58.8583C59.3485 56.2037 59.749 55.7646 59.749 55.2199V33.9488C59.749 33.4074 59.3515 32.965 58.8583 32.965H46.3525Z" fill="#4480A0"/>
<path d="M46.37 32.8068C46.211 32.9252 46.0069 32.9482 45.8299 32.8627C44.8487 32.3891 41.5149 30.9089 38.3641 30.9089H35.1684C34.8623 30.9089 34.6132 31.1819 34.6132 31.5174V53.4433C34.6132 53.7788 34.8623 54.0518 35.1684 54.0518H45.0197C45.1817 54.0518 45.3348 54.1275 45.4398 54.2624L45.7039 54.5946C45.9229 54.8709 46.313 54.8741 46.5351 54.6044L46.8291 54.2525C46.9342 54.1242 47.0842 54.0518 47.2402 54.0518H57.1066C57.4127 54.0518 57.6617 53.7788 57.6617 53.4433L57.6887 31.5174C57.6887 31.1786 57.4397 30.9056 57.1336 30.9056H53.7638C53.7638 30.9089 49.0947 30.7708 46.37 32.8068Z" fill="white"/>
<path d="M46.3074 56.0404L45.3669 54.8515C45.2618 54.7161 45.1085 54.6402 44.9463 54.6402H34.7571C34.4506 54.6402 34.2012 54.3661 34.2012 54.0292V30.6937C34.2012 30.3569 34.4506 30.0828 34.7571 30.0828H38.5551C41.5779 30.0828 44.7029 31.3708 45.9829 31.9619C46.1512 32.0379 46.3405 32.0214 46.4937 31.919C49.3332 29.9903 53.6962 30.0762 53.9876 30.0828H57.9569C58.2664 30.0828 58.5158 30.3569 58.5128 30.697L58.4828 54.0325C58.4828 54.3694 58.2334 54.6435 57.9269 54.6435H47.7106C47.5544 54.6435 47.4042 54.7161 47.299 54.8449L46.3074 56.0404ZM35.4001 53.3192H45.4961C45.6584 53.3192 45.8116 53.3951 45.9168 53.5305C46.1361 53.8079 46.5268 53.8112 46.7491 53.5404L46.7671 53.5206C46.8723 53.3918 47.0226 53.3192 47.1788 53.3192H57.2809L57.3079 31.4005H53.9606C53.9125 31.4005 49.162 31.2849 46.683 33.3721L46.662 33.3886C46.4967 33.5273 46.2714 33.5537 46.0821 33.4546L46.058 33.4414C46.0069 33.415 42.1158 31.4005 38.5521 31.4005H35.4001V53.3192Z" fill="#8A8A8A"/>
<path d="M46.151 32.5529H46.563V54.3922H46.151V32.5529Z" fill="#8A8A8A"/>
<path d="M48.3058 36.2648H56.0405V37.5926H48.3058V36.2648ZM48.3058 41.2937H56.0405V42.6214H48.3058V41.2937ZM48.3058 46.8835H56.0405V48.2113H48.3058V46.8835ZM36.6735 36.2615H44.4082V37.5892H36.6735V36.2615ZM36.6735 41.2937H44.4082V42.6214H36.6735V41.2937ZM36.6735 46.8835H44.4082V48.2113H36.6735V46.8835Z" fill="#CDCDCD"/>
<path d="M47.5932 8.24127H42.2364L39.97 15.6584H46.9751L47.5932 8.24127Z" fill="#B58C54"/>
<path d="M49.4475 15.2463L48.6234 8.36419L52.95 8.16177L56.2465 14.4367L49.4475 15.2463Z" fill="#B58C54"/>
<path d="M58.1008 6.79907L54.8043 7.6232L58.9249 14.4367L64.0757 13.2222L58.1008 6.79907Z" fill="#B58C54"/>
<path d="M61.3973 4.73876L58.9249 6.18098L66.342 12.1559L70.2566 10.3016L61.3973 4.73876Z" fill="#B58C54"/>
<path d="M71.4928 9.7811L62.0154 4.3267L62.2214 4.12067L72.1109 9.17385L71.4928 9.7811Z" fill="#B58C54"/>
</svg>
