<svg width="86" height="105" viewBox="0 0 86 105" fill="none" xmlns="http://www.w3.org/2000/svg">
<path d="M48.5567 0.473456C48.8639 0.600245 49.4785 0.600245 49.837 0.473456C50.1443 0.283274 49.8882 0.156486 49.1712 0.156486C48.4542 0.156486 48.1982 0.283274 48.5567 0.473456Z" fill="#4B7189"/>
<path d="M36.9754 0.283256C37.1291 0.536833 36.3609 1.10738 35.2854 1.55114C32.8784 2.37526 32.1615 2.43866 33.1857 1.61453C33.8515 1.10738 33.8515 0.980592 33.0833 0.980592C31.8542 0.980592 31.5469 1.9949 32.4687 2.94581C33.1345 3.57975 33.6978 3.45296 35.8488 2.12169C37.8973 0.917198 38.2557 0.473439 37.59 0.156468C37.1291 -0.0971085 36.8218 -0.0337143 36.9754 0.283256Z" fill="#4B7189"/>
<path d="M51.1405 1.13927C52.8817 1.8366 54.2132 1.8366 52.9329 1.13927C52.3696 0.822298 51.4477 0.632116 50.8844 0.632116C50.065 0.632116 50.1162 0.758904 51.1405 1.13927Z" fill="#4B7189"/>
<path d="M37.9484 1.86823C36.7705 2.75575 35.3878 3.51648 34.8757 3.70666C34.0051 3.96024 34.0051 3.96024 34.8245 4.404C35.3878 4.72097 36.4633 4.21381 37.9996 2.88254C39.3312 1.80484 40.3554 0.79053 40.3554 0.663742C40.3554 0.219983 40.253 0.219983 37.9484 1.86823Z" fill="#4B7189"/>
<path d="M40.0994 2.18512C39.3312 3.26282 38.2046 4.21373 37.59 4.34052C36.5658 4.5307 36.5658 4.5941 37.4876 5.10125C38.6655 5.73519 39.5873 5.03786 40.9188 2.3753C42.2503 -0.160465 41.9943 -0.223858 40.0994 2.18512Z" fill="#4B7189"/>
<path d="M42.4039 1.74142C42.4039 2.12179 41.8918 3.13609 41.2772 3.96022L40.2018 5.41828H41.6869C43.1209 5.41828 43.2233 5.29149 43.0185 3.19949C42.8136 1.10748 42.4039 0.0931736 42.4039 1.74142Z" fill="#4B7189"/>
<path d="M43.7355 2.8825C44.1452 5.67184 44.094 5.54506 45.8352 5.22808C47.1155 4.97451 47.1667 4.91111 46.1937 4.53075C45.6303 4.27717 44.7597 3.32626 44.2476 2.37535L43.377 0.663704L43.7355 2.8825Z" fill="#4B7189"/>
<path d="M46.1937 2.75569C47.1667 4.02357 48.191 4.7843 49.0104 4.7843H50.3419L49.0616 3.96018C48.3446 3.51642 47.1155 2.56551 46.2449 1.93157L44.7085 0.727078L46.1937 2.75569Z" fill="#4B7189"/>
<path d="M49.7274 2.88243C51.3662 4.02353 51.7759 4.08692 52.6465 3.32619C53.5683 2.50207 53.5171 2.50207 51.9807 2.43867C51.0589 2.43867 49.7786 2.24849 49.0616 1.99491C48.2422 1.67794 48.4471 1.99491 49.7274 2.88243Z" fill="#4B7189"/>
<path d="M22.4823 6.4325C19.9217 8.08075 17.822 9.6656 17.822 9.91918C17.822 10.8067 18.2829 10.6165 19.9729 9.15845C20.7923 8.39772 23.0457 6.81286 24.8893 5.67177C26.7842 4.53067 28.0645 3.57976 27.706 3.51637C27.3987 3.51637 24.9917 4.84764 22.4823 6.4325Z" fill="#B58C54"/>
<path d="M24.6204 6.43605C21.9061 8.90842 21.7397 8.84504 20.4338 10.002L19.2047 10.8737L20.4338 12.0781C21.202 12.8389 21.8677 13.0924 22.2262 12.7121C22.5335 12.3951 24.4283 10.6835 26.3744 8.84504C30.7787 4.78781 30.3818 5.49674 29.652 5.04139C28.0772 4.05877 28.6534 3.58332 24.6204 6.43605Z" fill="#B58C54"/>
<path d="M34.5685 8.47696L29.7673 15.9664L32.2127 15.6881C29.1912 15.4979 28.679 16.4488 31.5469 17.0827C34.927 17.7801 35.0294 17.7167 36.3097 13.4693C36.9755 11.3139 37.59 9.34864 37.6924 9.03167C37.7949 8.77809 34.8246 8.47696 34.5685 8.47696C29.6501 16.1493 29.7673 15.9664 34.5685 8.47696Z" fill="#B58C54"/>
<path d="M10.9595 16.8926C9.11583 19.365 7.57946 21.9642 7.57946 22.6615C7.57946 23.6758 7.83552 23.4856 8.9622 21.774C9.67917 20.6329 11.574 18.0337 13.1616 16.0051C15.0053 13.7229 15.7222 12.3917 15.1589 12.3917C14.698 12.3917 12.8031 14.4203 10.9595 16.8926Z" fill="#4480A0"/>
<path d="M69.0345 14.6105C69.0345 14.8641 74.4118 23.3589 75.9994 25.6411C76.1018 25.7679 76.6652 25.3875 77.1773 24.817C78.1503 23.7393 78.0479 23.6125 74.5142 18.9847C72.517 16.3855 70.4685 14.2935 69.9563 14.2935C69.4442 14.2935 69.0345 14.4203 69.0345 14.6105Z" fill="#4480A0"/>
<path d="M12.2398 20.4427C8.8086 25.0071 8.60375 25.3875 9.47436 26.2116C11.9326 28.4938 12.035 28.4304 14.2883 24.3098C15.4662 22.091 17.0026 19.5552 17.7196 18.6043C19.1535 16.6391 19.1535 16.5123 17.2587 16.0052C16.0808 15.6248 15.4662 16.1953 12.2398 20.4427Z" fill="#4480A0"/>
<path d="M66.3202 17.5266C65.8081 17.907 65.0399 18.0338 64.6302 17.8436C63.606 17.3365 63.6572 17.3999 66.1154 22.0276C67.2933 24.3098 68.676 27.0358 69.1369 28.1769L70.0075 30.2055L71.9536 29.1912C74.7703 27.7331 74.8727 27.4161 73.0291 24.7536C68.3687 17.9704 67.2933 16.8293 66.3202 17.5266Z" fill="#4480A0"/>
<path d="M18.9999 21.0766C18.1805 22.4079 16.9514 24.5633 16.3368 25.8312C15.7223 27.1624 14.9541 28.2401 14.698 28.2401C14.442 28.2401 14.2371 28.4937 14.2371 28.8741C14.2371 29.3812 18.795 31.4099 20.1266 31.4099C20.4338 31.4099 21.7654 28.6839 23.0969 25.3874C25.1966 20.1257 25.3502 19.365 24.5308 19.365C24.0187 19.365 22.892 19.1748 22.0726 18.9846C20.7411 18.6676 20.3314 18.9212 18.9999 21.0766Z" fill="#4581A1"/>
<path d="M28.4755 7.80483C27.6036 8.68439 26.2735 10.1303 25.582 11.0051C24.8817 11.9306 24.0879 12.6191 23.8734 12.5617C23.6589 12.5044 23.4519 12.661 23.3989 12.9647C23.3282 13.3697 26.8642 16.0106 27.9798 16.3088C28.2372 16.3777 29.7325 14.4991 31.3074 12.1649C33.7996 8.43344 34.0343 7.86038 33.3478 7.67684C32.9188 7.56213 32.0013 7.15791 31.3414 6.8225C30.27 6.27114 29.8914 6.38187 28.4755 7.80483Z" fill="#B58C54"/>
<path d="M58.9968 20.316L56.4361 20.9499L58.0237 26.4652C58.8943 29.5081 59.7137 32.1707 59.9186 32.3609C60.0722 32.551 61.711 32.4243 63.6059 31.9805C66.8835 31.2832 68.1638 30.459 67.1396 29.5715C66.8835 29.3813 65.7056 27.0992 64.4765 24.5634C63.2474 22.0276 62.1207 19.8722 61.9159 19.8088C61.7622 19.682 60.4307 19.9356 58.9968 20.316Z" fill="#4480A0"/>
<path d="M27.2962 22.0908C26.8865 22.8516 26.0671 24.8802 25.4526 26.6552C24.838 28.3669 24.121 30.0151 23.8138 30.2053C22.7383 31.0928 23.9674 32.5509 26.1183 32.8679C27.9108 33.1214 28.679 32.8679 30.3178 31.4098C32.059 29.9517 32.5199 29.0642 33.2881 25.7043C33.749 23.4855 34.1075 21.5837 34.0563 21.5203C34.0051 21.5203 32.6223 21.2667 30.9835 21.0765C28.3717 20.7596 27.962 20.8864 27.2962 22.0908Z" fill="#4581A1"/>
<path d="M49.164 21.7106L46.4497 21.9642L46.6033 24.3098C46.757 26.4018 46.9618 26.6554 49.2152 27.6697C50.5979 28.3036 52.7488 29.6349 54.0804 30.7126C56.6922 32.8046 57.1019 32.6144 56.1801 29.7617C55.8216 28.7474 55.5143 27.7965 55.5143 27.6063C55.4631 27.4161 55.2583 26.9089 55.0534 26.4652C54.7973 26.0848 54.7461 25.7045 54.8998 25.7045C55.0534 25.7045 54.7461 24.7535 54.234 23.6124C53.261 21.3937 53.1585 21.3937 49.164 21.7106Z" fill="#4480A0"/>
<path d="M35.9 24.8169L35.3366 27.733L36.7194 27.3527C37.4363 27.0991 39.3824 26.7821 41.0212 26.5285C43.9403 26.1482 43.9403 26.1482 43.9403 24.0562V21.9008H36.4121L35.9 24.8169Z" fill="#4480A0"/>
<path d="M3.22638 29.9518C1.69001 34.0724 0.716971 38.5734 1.02425 39.7779C1.17788 40.2216 1.58758 39.4609 1.94607 38.0662C2.30456 36.6715 3.38002 33.6286 4.30185 31.283C6.29913 26.4017 6.29913 26.3383 5.3261 26.3383C4.9164 26.3383 3.99457 27.9865 3.22638 29.9518Z" fill="#726183"/>
<path d="M78.9697 28.7473L77.8942 29.8884L79.0209 32.7411C79.6355 34.2626 80.5573 37.1153 81.1206 39.0172C82.2985 43.3914 82.1449 43.2646 83.4252 41.8065C84.1934 40.9824 84.3982 40.1583 84.1934 38.8904C83.7837 36.4814 80.8134 27.6062 80.4037 27.6062C80.1988 27.6696 79.533 28.1768 78.9697 28.7473Z" fill="#726183"/>
<path d="M5.01887 32.4875C3.43129 36.8617 2.45825 40.285 2.45825 41.5529C2.45825 42.6306 5.32615 45.3565 6.45282 45.3565C6.70889 45.3565 7.11859 44.3422 7.27222 43.1377C7.47707 41.9333 8.29647 38.8269 9.11587 36.3546C9.93527 33.8188 10.5498 31.7902 10.4986 31.7902C10.4474 31.7268 9.628 31.2196 8.70617 30.5857C7.73314 30.0152 6.7601 29.508 6.55525 29.508C6.29919 29.508 5.58221 30.8393 5.01887 32.4875Z" fill="#726183"/>
<path d="M74.0021 32.9313C72.2609 33.8189 71.5951 34.5162 71.8 35.2135C71.9536 35.7207 72.6706 38.7002 73.4388 41.8699C74.207 44.9762 74.8727 47.6388 74.9239 47.7656C75.2312 48.2093 80.8134 44.7227 80.8134 44.1521C80.8134 42.8842 77.6382 32.7412 77.0749 32.1706C76.6652 31.8536 75.5385 32.1072 74.0021 32.9313Z" fill="#726183"/>
<path d="M11.4204 35.5939C9.98645 39.9047 8.60371 46.2441 8.9622 46.6878C9.42311 47.195 16.388 49.9209 16.5416 49.6674C16.5929 49.5406 17.1562 46.878 17.7707 43.7717C18.3853 40.602 18.9998 37.4323 19.1535 36.6082C19.4095 35.4671 19.2559 35.2135 18.2829 35.2135C17.6171 35.2135 15.9783 34.7697 14.5956 34.2626L12.1886 33.3751L11.4204 35.5939Z" fill="#726183"/>
<path d="M64.3229 36.3546C62.3769 36.8618 60.8405 37.6225 60.8405 38.0029C60.8405 38.3832 61.3014 40.7288 61.8647 43.1378C62.4281 45.5468 62.889 48.3361 62.889 49.287C62.889 51.379 62.5817 51.3156 67.959 49.9844L72.2097 48.97L71.9024 46.7513C71.7488 45.5468 71.1342 42.4404 70.5197 39.9047C69.2906 34.643 69.5978 34.8331 64.3229 36.3546Z" fill="#726183"/>
<path d="M21.4068 38.9537C21.0996 40.2216 20.5874 43.2011 20.2802 45.5467C19.768 49.2236 19.768 49.9843 20.3826 50.4281C21.8165 51.5692 22.2774 51.062 22.5847 47.8289C22.8408 45.2932 24.3772 40.285 25.8623 37.1153C25.9647 36.9251 25.0941 36.7349 23.9675 36.7349C22.0726 36.6082 21.919 36.7349 21.4068 38.9537Z" fill="#726183"/>
<path d="M0 45.3565C0 46.244 0.102425 46.561 0.256063 46.1173C0.358488 45.7369 0.358488 44.9762 0.256063 44.5324C0.102425 44.152 0 44.469 0 45.3565Z" fill="#4581A1"/>
<path d="M83.9885 46.9414C83.3739 47.3218 82.9642 47.9557 83.1179 48.3995C83.2715 48.9066 83.3739 52.1397 83.4251 55.6264L83.4764 62.0292L84.5518 60.6345C85.4224 59.5568 85.6785 58.3523 85.8321 54.6755C85.9346 52.2031 85.8321 49.2236 85.5761 48.2093C85.2176 46.4976 85.0127 46.3709 83.9885 46.9414Z" fill="#4480A0"/>
<path d="M1.22907 48.2727C1.07543 48.8433 0.921791 51.7594 0.921791 54.8657C0.921791 60.9515 1.17785 61.6489 4.04575 63.4239L5.53092 64.4382V58.5426C5.53092 55.3095 5.68455 52.013 5.83819 51.1888C6.09425 50.1745 5.94062 49.7942 5.27485 49.7942C4.81394 49.7942 3.73848 49.2236 2.97029 48.5263C1.68998 47.4486 1.48513 47.3852 1.22907 48.2727Z" fill="#4581A1"/>
<path d="M78.4064 51.2522L75.7433 52.6469L75.9482 66.7838L78.5088 65.5159C79.9428 64.8185 81.2231 64.1212 81.4279 63.8676C82.1449 62.9801 82.1961 49.7941 81.4791 49.8575C81.2231 49.8575 79.8915 50.4915 78.4064 51.2522Z" fill="#4480A0"/>
<path d="M7.83548 53.1541C7.68184 53.9148 7.57942 57.0846 7.68184 60.2543L7.83548 65.9597L11.6764 67.291C14.2883 68.2419 15.5686 68.4321 15.6198 67.9249C15.671 67.5446 15.8246 64.1847 15.9271 60.4444C16.0295 55.8167 15.9271 53.7881 15.5686 53.9782C15.2613 54.105 13.4689 53.6613 11.574 53.0273L8.09154 51.7594L7.83548 53.1541Z" fill="#4581A1"/>
<path d="M69.5466 54.5487C68.0102 55.0559 65.9617 55.4996 65.0911 55.6264L63.4011 55.7532V62.9167C63.4011 71.2214 62.9914 70.7776 69.2905 68.9392L72.8754 67.8615L73.1314 65.2623C73.4899 62.156 73.1314 53.5978 72.6705 53.6612C72.5169 53.6612 71.0829 54.105 69.5466 54.5487Z" fill="#4480A0"/>
<path d="M18.8462 69.3195L20.2801 69.6998C21.0483 69.89 22.6871 70.207 23.9674 70.3972C25.2477 70.5873 26.8865 70.9043 27.7059 71.0945C28.5253 71.2847 29.0887 71.1579 29.0887 70.7775C29.0887 70.3972 28.7814 70.0802 28.4229 70.0802C26.8353 70.0802 21.8165 57.1478 22.5335 55.6263C22.5335 55.6263 21.3172 55.3906 22.0854 55.8661C21.1251 55.1509 22.4882 56.4684 22.5335 55.4361H18.8462V69.3195Z" fill="#4581A1"/>
<path d="M83.1691 67.481C82.7081 68.5587 82.3496 69.5731 82.3496 69.7632C82.4009 70.4606 81.6839 73.5669 81.3766 74.2008C80.7621 75.3419 79.789 78.3214 80.0451 78.3214C80.4036 78.3214 83.169 71.3481 83.886 68.6221C84.6542 65.5792 84.2445 64.8819 83.1691 67.481Z" fill="#BC6C6F"/>
<path d="M1.9461 67.1641C1.9461 68.432 4.4043 76.483 5.17248 77.6875C5.94067 78.9554 8.14281 80.8572 8.80857 80.8572C9.06463 80.8572 8.80857 80.2233 8.19402 79.3992C7.01613 77.8777 5.53097 73.2499 5.53097 71.2847C5.53097 70.5874 5.01885 69.5731 4.45551 68.9391C3.84096 68.3686 3.07277 67.4811 2.66307 67.0373C2.04852 66.34 1.9461 66.34 1.9461 67.1641Z" fill="#BC6C6F"/>
<path d="M59.3054 67.2451C58.9584 67.8887 58.0026 68.8661 57.139 69.2702C55.8715 70.0025 57.6824 69.7271 58.6074 69.892C60.5097 70.2836 60.5205 69.3042 60.4887 67.5296C60.4547 65.6283 60.2487 65.5705 59.3054 67.2451Z" fill="#4581A1"/>
<path d="M80.5573 68.8124C80.3524 69.1928 79.3282 69.9535 78.2527 70.4606C76.4091 71.4116 76.2554 71.6651 75.436 75.7857C74.9751 78.1947 74.1557 80.6037 73.5924 81.2376C71.9023 83.0761 72.5169 83.393 75.2312 81.9984C78.0991 80.4769 78.6112 79.5894 80.25 72.9964C81.2742 68.9392 81.3767 67.1008 80.5573 68.8124Z" fill="#BC6C6F"/>
<path d="M8.3989 71.7919C9.26951 76.8634 10.8571 81.618 11.8301 82.3787C13.3665 83.5198 17.7708 84.9145 18.2317 84.4073C18.4366 84.1538 18.5134 84.4727 18.0525 84.1558C17.3355 83.6486 17.1403 80.1144 15.94 74.1712C15.7351 73.1569 14.6468 73.1866 12.8544 72.6794C11.4717 72.2357 9.88406 71.4749 9.2183 70.9678C8.09163 70.0803 8.09163 70.0803 8.3989 71.7919Z" fill="#BC6C6F"/>
<path d="M69.8026 73.6304C68.4199 74.0742 66.3714 74.5813 65.296 74.8349C63.4011 75.2153 61.8647 75.3282 63.0938 75.8354C63.9132 76.1524 63.8108 74.5725 62.8377 75.7136C62.428 76.2841 60.6078 89.7325 61.5296 85.4851C62.349 85.4851 62.889 84.1539 61.9159 85.1048C60.482 86.3727 61.5062 86.4995 65.4496 85.4851C67.8566 84.9146 69.5978 84.0905 70.1099 83.3931C70.8781 82.252 72.9778 73.3769 72.5681 73.0599C72.4657 72.9331 71.2366 73.1867 69.8026 73.6304Z" fill="#BC6C6F"/>
<path d="M19.6144 77.1804C20.5875 85.7386 20.7923 85.9922 27.1939 86.8163C30.83 87.3234 31.4445 86.8163 29.8057 84.8511C29.2424 84.0903 29.9828 87.1333 30.3925 86.8163C31.007 86.3091 29.8057 75.7223 29.1399 75.9125C28.423 76.1661 21.8166 75.0884 20.5875 74.5178L19.2559 73.8839L19.6144 77.1804Z" fill="#BC6C6F"/>
<path d="M59.2016 75.5321C58.9968 75.7223 56.5386 76.1661 53.6195 76.483C50.7516 76.7366 48.3446 77.117 48.2934 77.1804C48.1909 77.3072 48.0373 79.7795 47.9349 82.6957L47.7812 88.0208L52.8513 87.577C55.668 87.3868 58.1262 86.8797 58.2798 86.4993C58.6895 85.6752 59.9698 75.7223 59.6625 75.4053C59.5601 75.2786 59.3553 75.342 59.2016 75.5321Z" fill="#BC6C6F"/>
<path d="M33.3393 81.4279C33.4929 84.2172 33.749 86.753 33.9539 87.1334C34.1587 87.5771 36.3096 87.8307 39.3824 87.8307H44.4524V77.4341H42.2503C41.1748 77.5608 35.0805 77.1191 33.3393 76.5485C32.84 76.3849 32.9808 75.7224 33.3393 81.4279Z" fill="#BC6C6F"/>
<path d="M8.34763 84.0905C10.3449 87.1968 14.0322 91.7612 15.0053 92.3951C16.2344 93.2826 10.0889 84.8512 8.45006 83.4566L7.32338 82.5056L8.34763 84.0905Z" fill="#4480A0"/>
<path d="M73.5411 85.9922C72.4657 86.7529 71.1342 88.2744 70.5708 89.4789C69.9563 90.62 68.6247 92.4584 67.6005 93.5361L65.7056 95.5013L67.4981 94.6772C69.3417 93.9165 74.0021 88.5914 75.1287 86.0556C75.436 85.2949 75.6409 84.6609 75.5896 84.7243C75.4872 84.7243 74.5654 85.2949 73.5411 85.9922Z" fill="#4480A0"/>
<path d="M13.5201 87.6405C15.4661 91.5709 18.6925 95.1844 20.8947 96.0085C23.4553 96.9595 24.0186 96.5791 22.2774 95.1844C21.6116 94.6139 20.6386 93.029 20.1265 91.6343C19.3583 89.5423 18.7949 88.9718 17.1049 88.3378C15.927 87.8941 14.4419 87.1334 13.7249 86.6262L12.4446 85.6119L13.5201 87.6405Z" fill="#4B7189"/>
<path d="M66.4739 88.845C65.5009 89.2887 64.1693 89.6691 63.5548 89.6691C61.6087 89.7325 60.8405 90.4932 60.0211 92.8388C59.6114 94.0433 58.7408 95.7549 58.1775 96.5156C56.8972 98.2273 56.8972 98.1639 60.4308 97.2764C61.916 96.896 63.7084 95.9451 64.3742 95.1844C65.6545 93.7263 68.7272 88.4646 68.42 88.211C68.3688 88.1476 67.4469 88.4012 66.4739 88.845Z" fill="#4480A0"/>
<path d="M22.431 89.5424C22.431 90.6201 25.555 96.7059 26.4256 97.2765C27.8084 98.164 33.1857 98.8613 33.1857 98.1006C33.1857 97.7202 32.9808 97.3398 32.6735 97.2131C32.4175 97.0863 32.1102 96.3255 31.9566 95.438C31.8541 94.5505 31.7005 93.7264 31.6493 93.5362C31.5981 93.346 31.4957 92.7755 31.4444 92.2683C31.3932 91.571 30.3178 91.1272 27.5523 90.6835C25.4526 90.3031 23.4041 89.7959 23.0968 89.5424C22.7383 89.2254 22.431 89.2254 22.431 89.5424Z" fill="#4480A0"/>
<path d="M54.695 91.1272C53.4147 91.3174 51.3149 91.5709 49.9834 91.5709C47.7813 91.6343 47.5764 91.7611 47.3204 93.5362C47.1667 94.5505 46.8595 96.3255 46.7058 97.4666L46.3985 99.4318L49.1128 99.0515C50.6492 98.7979 52.544 98.6077 53.3122 98.6077C54.5413 98.6077 54.951 98.1639 56.0265 95.121C56.7435 93.2192 57.2556 91.3808 57.1532 91.1272C57.0507 90.8736 55.9753 90.8736 54.695 91.1272Z" fill="#4480A0"/>
<path d="M34.5173 93.219C34.6709 94.2333 35.1318 96.0718 35.5415 97.1495L36.2073 99.2415H43.7867L44.1452 95.6914C44.3501 93.7262 44.4013 92.0145 44.3501 91.9511C44.2476 91.8244 41.9431 91.6342 39.1776 91.5074L34.1588 91.3172L34.5173 93.219Z" fill="#4480A0"/>
<path d="M63.0938 98.354C62.172 99.2415 62.172 99.3049 63.2987 98.6076C63.9132 98.2272 64.4253 97.7834 64.4253 97.6567C64.4253 97.1495 64.1693 97.2763 63.0938 98.354Z" fill="#4480A0"/>
<path d="M22.9432 98.8612C22.9432 99.3684 26.8866 101.777 27.6547 101.777C28.0132 101.777 27.6547 101.207 26.7841 100.573C25.0941 99.305 22.9432 98.2907 22.9432 98.8612Z" fill="#4480A0"/>
<path d="M58.0238 100.192C55.1559 101.334 51.7247 103.616 52.7489 103.679C53.978 103.679 58.8944 101.27 59.8162 100.129C60.6869 99.0514 60.6869 99.0514 58.0238 100.192Z" fill="#4480A0"/>
<path d="M29.0887 100.826C29.4984 101.397 29.4472 101.714 28.9863 101.967C28.6278 102.158 28.7815 102.284 29.3448 102.284C29.9081 102.284 31.2909 102.728 32.4175 103.299C33.5442 103.806 35.0294 104.25 35.7464 104.313C36.9755 104.313 36.9242 104.25 35.2342 102.982C33.0321 101.27 28.3205 99.6852 29.0887 100.826Z" fill="#4480A0"/>
<path d="M51.8783 101.143C51.315 101.46 49.9834 101.714 48.8568 101.714C47.474 101.777 46.6034 102.221 45.9376 103.172C45.3743 103.869 45.067 104.63 45.1695 104.757C45.8352 105.644 50.3931 103.933 51.8271 102.348C53.5171 100.446 53.5171 100.256 51.8783 101.143Z" fill="#4480A0"/>
<path d="M36.7706 101.841C36.7706 102.031 37.2827 102.792 37.9485 103.552C38.7679 104.503 39.7921 104.947 41.2773 104.947C42.4552 104.947 43.4282 104.757 43.4282 104.44C43.4282 104.186 43.5818 103.426 43.7355 102.728C43.9915 101.524 43.7355 101.46 40.4067 101.46C38.4094 101.46 36.7706 101.651 36.7706 101.841Z" fill="#4480A0"/>
<path d="M31.58 38.0367C31.1231 38.0367 30.7498 38.5433 30.7498 39.168L30.7275 63.7116C30.7275 64.3401 31.098 64.8467 31.5577 64.8467H40.0859L40.3172 65.4677C40.4593 65.8486 40.7434 66.0886 41.0583 66.0886H45.4046C45.7082 66.0886 45.9869 65.86 46.1345 65.4981L46.3936 64.8505H54.8633C55.3202 64.8505 55.6936 64.3439 55.6936 63.7154V39.1719C55.6936 38.5471 55.323 38.0367 54.8633 38.0367H31.58Z" fill="#4480A0"/>
<path d="M43.2226 37.854C43.0744 37.9907 42.8842 38.0172 42.7192 37.9186C41.8045 37.372 38.697 35.6642 35.7601 35.6642H32.7813C32.496 35.6642 32.2638 35.9792 32.2638 36.3663V61.6654C32.2638 62.0525 32.496 62.3675 32.7813 62.3675H41.964C42.115 62.3675 42.2577 62.4548 42.3556 62.6104L42.6017 62.9937C42.8059 63.3125 43.1695 63.3163 43.3765 63.0051L43.6506 62.599C43.7485 62.451 43.8883 62.3675 44.0338 62.3675H53.2305C53.5158 62.3675 53.7479 62.0525 53.7479 61.6654L53.7731 36.3663C53.7731 35.9754 53.5409 35.6604 53.2556 35.6604H50.1146C50.1146 35.6642 45.7623 35.5048 43.2226 37.854Z" fill="white"/>
<path d="M43.1644 64.6622L42.2877 63.2904C42.1897 63.1341 42.0468 63.0465 41.8956 63.0465H32.398C32.1123 63.0465 31.8798 62.7302 31.8798 62.3415V35.416C31.8798 35.0273 32.1123 34.7111 32.398 34.7111H35.9382C38.7559 34.7111 41.6687 36.1972 42.8619 36.8793C43.0187 36.9669 43.1952 36.9479 43.338 36.8297C45.9848 34.6044 50.0516 34.7034 50.3233 34.7111H54.0232C54.3117 34.7111 54.5441 35.0273 54.5413 35.4198L54.5133 62.3453C54.5133 62.734 54.2809 63.0503 53.9952 63.0503H44.4723C44.3267 63.0503 44.1867 63.1341 44.0886 63.2827L43.1644 64.6622ZM32.9973 61.5223H42.4081C42.5594 61.5223 42.7022 61.6099 42.8002 61.7661C43.0047 62.0862 43.3688 62.09 43.5761 61.7776L43.5929 61.7547C43.6909 61.6061 43.831 61.5223 43.9766 61.5223H53.393L53.4182 36.2315H50.2981C50.2533 36.2315 45.8251 36.0981 43.5145 38.5064L43.4949 38.5254C43.3408 38.6855 43.1307 38.716 42.9543 38.6017L42.9319 38.5864C42.8843 38.5559 39.2572 36.2315 35.9354 36.2315H32.9973V61.5223Z" fill="#8A8A8A"/>
<path d="M43.0185 37.5612H43.4026V62.7604H43.0185V37.5612Z" fill="#8A8A8A"/>
<path d="M45.027 41.8441H52.2367V43.3761H45.027V41.8441ZM45.027 47.6466H52.2367V49.1787H45.027V47.6466ZM45.027 54.0965H52.2367V55.6285H45.027V54.0965ZM34.1843 41.8403H41.394V43.3723H34.1843V41.8403ZM34.1843 47.6466H41.394V49.1787H34.1843V47.6466ZM34.1843 54.0965H41.394V55.6285H34.1843V54.0965Z" fill="#CDCDCD"/>
<path d="M44.3628 9.50933H39.3696L37.2571 18.0675H43.7867L44.3628 9.50933Z" fill="#B58C54"/>
<path d="M46.0913 17.592L45.3231 9.65101L49.3561 9.41745L52.4288 16.6577L46.0913 17.592Z" fill="#B58C54"/>
<path d="M54.1572 7.84511L51.0845 8.79602L54.9254 16.6577L59.7266 15.2564L54.1572 7.84511Z" fill="#B58C54"/>
<path d="M57.23 5.46783L54.9254 7.13193L61.8391 14.026L65.488 11.8865L57.23 5.46783Z" fill="#B58C54"/>
<path d="M66.6403 11.2859L57.8061 4.99237L57.9982 4.75464L67.2164 10.5852L66.6403 11.2859Z" fill="#B58C54"/>
</svg>
