<svg width="51" height="51" viewBox="0 0 51 51" fill="none" xmlns="http://www.w3.org/2000/svg">
<path d="M50.0994 50.0832C50.5974 50.0832 51 49.564 51 48.9193C51 48.2746 50.5974 47.7553 50.0994 47.7553H46.2976V11.9302C46.2976 11.5594 46.1855 11.217 46.0071 10.9717C45.8245 10.7206 45.5796 10.5666 45.3098 10.5666H39.906C39.6321 10.5666 39.3872 10.7206 39.2087 10.9717C39.0303 11.217 38.9182 11.5594 38.9182 11.9302V47.7496H34.8965V22.32C34.8965 21.9492 34.7844 21.6125 34.606 21.3615C34.4275 21.1161 34.1785 20.9621 33.9128 20.9621H28.509C28.231 20.9621 27.9861 21.1161 27.8118 21.3615C27.6333 21.6068 27.5212 21.9549 27.5212 22.32V47.7496H23.4995V1.54042C23.4995 1.16955 23.3875 0.832928 23.209 0.581883C23.0181 0.336545 22.7732 0.182495 22.4993 0.182495H17.0955C16.8215 0.182495 16.5767 0.336545 16.3982 0.581883C16.2197 0.827222 16.1077 1.17526 16.1077 1.54042V47.7496H12.0859V14.9028C12.0859 14.5319 11.9739 14.1896 11.7954 13.9443C11.6169 13.6989 11.3679 13.5449 11.094 13.5449H5.69019C5.41626 13.5449 5.16724 13.6989 4.99292 13.9443C4.81445 14.1896 4.70239 14.5319 4.70239 14.9028V47.7553H0.900635C0.402588 47.7553 0 48.2746 0 48.9193C0 49.564 0.402588 50.0832 0.900635 50.0832H5.57812C5.58643 50.0832 5.59473 50.0832 5.60303 50.0832H11.1812C11.1895 50.0832 11.1978 50.0832 11.2061 50.0832H16.9834C16.9917 50.0832 17 50.0832 17.0083 50.0832H22.5864C22.5947 50.0832 22.603 50.0832 22.6113 50.0832H28.3845C28.3928 50.0832 28.4011 50.0832 28.4094 50.0832H33.9917C34 50.0832 34.0083 50.0832 34.0166 50.0832H39.7939H39.8188H45.397H45.4219H50.0994ZM40.7195 13.0485H44.4963V47.6013H40.7195V13.0485ZM29.3142 23.4383H33.0911V47.6013H29.3142V23.4383ZM17.9089 2.6587H21.6858V47.6013H17.9089V2.6587ZM6.50781 16.0211H10.2847V47.607H6.50781V16.0211Z" fill="#FDF6F6"/>
</svg>
