<svg width="40" height="40" viewBox="0 0 40 40" fill="none" xmlns="http://www.w3.org/2000/svg">
<g clip-path="url(#clip0_11_200)">
<path fill-rule="evenodd" clip-rule="evenodd" d="M26.4567 35C25.7165 37.8753 23.1063 40 20 40C16.8937 40 14.2834 37.8753 13.5434 35H4.16667C1.86548 35 0 33.1345 0 30.8333C0 28.7223 1.03071 26.7443 2.7609 25.535L4.04517 24.6373C5.688 23.489 6.66667 21.611 6.66667 19.6067V12.6701C6.66667 5.67258 12.3392 0 19.3368 0H20.768C27.7077 0 33.3333 5.62568 33.3333 12.5653V19.3362C33.3333 21.3983 34.3178 23.3365 35.983 24.5528L37.2975 25.5128C38.996 26.7533 40 28.7302 40 30.8333C40 33.1345 38.1345 35 35.8333 35H26.4567ZM22.8873 35H17.1127C17.689 35.9963 18.7662 36.6667 20 36.6667C21.2338 36.6667 22.311 35.9963 22.8873 35Z" fill="white"/>
</g>
<defs>
<clipPath id="clip0_11_200">
<rect width="40" height="40" fill="white"/>
</clipPath>
</defs>
</svg>
