<svg width="61" height="57" viewBox="0 0 61 57" fill="none" xmlns="http://www.w3.org/2000/svg">
<g clip-path="url(#clip0_154_4718)">
<path d="M52.541 6.55679L53.9826 7.90386C55.1025 8.95034 55.1025 10.6425 53.9826 11.6779L50.5156 14.9287L45.0232 9.79643L48.4902 6.55679C49.6102 5.5103 51.4211 5.5103 52.5291 6.55679H52.541ZM24.9957 28.5218L40.9844 13.5705L46.4768 18.7027L30.4762 33.6429C30.1307 33.9658 29.7018 34.1996 29.2371 34.322L22.2674 36.1812L24.257 29.6685C24.3881 29.2343 24.6383 28.8335 24.9838 28.5107L24.9957 28.5218ZM44.4514 2.78276L20.9449 24.7367C19.9084 25.7052 19.1578 26.8964 18.7646 28.199L15.3572 39.3318C15.0713 40.2669 15.3453 41.2689 16.084 41.9591C16.8227 42.6494 17.8949 42.9054 18.8957 42.6382L30.8098 39.4542C32.2156 39.0757 33.4904 38.3744 34.515 37.4169L58.0215 15.463C61.3693 12.3347 61.3693 7.25815 58.0215 4.12983L56.5799 2.78276C53.232 -0.345557 47.7992 -0.345557 44.4514 2.78276ZM10.4844 7.12456C4.69414 7.12456 0 11.5109 0 16.9214V47.2027C0 52.6132 4.69414 56.9996 10.4844 56.9996H42.8906C48.6809 56.9996 53.375 52.6132 53.375 47.2027V34.7339C53.375 33.2533 52.1002 32.0621 50.5156 32.0621C48.9311 32.0621 47.6562 33.2533 47.6562 34.7339V47.2027C47.6562 49.663 45.5236 51.6558 42.8906 51.6558H10.4844C7.85137 51.6558 5.71875 49.663 5.71875 47.2027V16.9214C5.71875 14.4611 7.85137 12.4683 10.4844 12.4683H23.8281C25.4127 12.4683 26.6875 11.2771 26.6875 9.79643C26.6875 8.31577 25.4127 7.12456 23.8281 7.12456H10.4844Z" fill="black"/>
</g>
<defs>
<clipPath id="clip0_154_4718">
<rect width="61" height="57" fill="white"/>
</clipPath>
</defs>
</svg>
