<svg width="25" height="25" viewBox="0 0 25 25" fill="none" xmlns="http://www.w3.org/2000/svg">
<path d="M18.0134 14.8884C17.6067 15.2952 17.6067 15.9548 18.0134 16.3615C18.4202 16.7683 19.0798 16.7683 19.4866 16.3615L22.5209 13.3272C22.5366 13.3115 22.5518 13.2955 22.5664 13.2791C22.7812 13.0883 22.9167 12.81 22.9167 12.5C22.9167 12.19 22.7812 11.9116 22.5664 11.7208C22.5518 11.7045 22.5366 11.6884 22.5209 11.6728L19.4866 8.63841C19.0798 8.23162 18.4202 8.23162 18.0134 8.63841C17.6067 9.04521 17.6067 9.70475 18.0134 10.1116L19.3602 11.4583H13.5417C12.9664 11.4583 12.5 11.9247 12.5 12.5C12.5 13.0753 12.9664 13.5416 13.5417 13.5416H19.3602L18.0134 14.8884Z" fill="#323232"/>
<path d="M5.20825 2.08331C3.48237 2.08331 2.08325 3.48243 2.08325 5.20831V19.7916C2.08325 21.5176 3.48237 22.9166 5.20825 22.9166H15.1041C16.5423 22.9166 17.7083 21.7507 17.7083 20.3125V17.4298C17.554 17.3406 17.4088 17.2301 17.2768 17.0981C16.5951 16.4164 16.4846 15.3801 16.9451 14.5833H13.5416C12.391 14.5833 11.4583 13.6506 11.4583 12.5C11.4583 11.3494 12.391 10.4166 13.5416 10.4166H16.9451C16.4846 9.61992 16.5951 8.58347 17.2768 7.90184C17.4088 7.76988 17.554 7.65931 17.7083 7.57017V4.68748C17.7083 3.24924 16.5423 2.08331 15.1041 2.08331H5.20825Z" fill="#323232"/>
</svg>
