<svg width="41" height="41" viewBox="0 0 41 41" fill="none" xmlns="http://www.w3.org/2000/svg">
<path fill-rule="evenodd" clip-rule="evenodd" d="M23.0567 23.1875H36.7025C37.58 23.1875 38.4215 23.4957 39.042 24.0442C39.6625 24.5927 40.011 25.3366 40.011 26.1123V37.5351C40.011 38.3108 39.6625 39.0547 39.042 39.6032C38.4215 40.1517 37.58 40.4599 36.7025 40.4599H23.0567C22.1792 40.4599 21.3377 40.1517 20.7172 39.6032C20.0968 39.0547 19.7482 38.3108 19.7482 37.5351V26.1025C19.7482 25.3268 20.0968 24.5829 20.7172 24.0344C21.3377 23.4859 22.1792 23.1778 23.0567 23.1778V23.1875ZM31.0486 9.68163C31.2892 9.74198 31.5013 9.86956 31.653 10.0453C31.8047 10.221 31.8881 10.4355 31.8905 10.6565V12.3757H34.7762C35.1091 12.3733 35.4391 12.4295 35.7472 12.5411C36.0552 12.6527 36.3349 12.8174 36.5702 13.0256C37.0428 13.4475 37.3071 14.0177 37.3054 14.6115V20.0873H35.0997V14.631C35.1003 14.5462 35.0634 14.4645 34.9968 14.4035C34.9268 14.3438 34.833 14.3111 34.7358 14.3125H31.8905V20.084H29.5708V11.8947H19.9283C19.7741 11.8964 19.6209 11.871 19.4779 11.82C19.3348 11.769 19.2046 11.6934 19.0948 11.5976C18.985 11.5018 18.8979 11.3876 18.8384 11.2618C18.7789 11.1359 18.7483 11.0009 18.7483 10.8645V2.56471H2.32333V33.5932H16.0868V35.6437H6.01784V38.2175C6.01727 38.3023 6.05421 38.384 6.12078 38.445C6.18984 38.5039 6.28218 38.5365 6.3781 38.536H16.0794V40.4631H6.39281C5.72113 40.4564 5.07905 40.2177 4.60373 39.7981C4.12841 39.3785 3.85752 38.8113 3.84892 38.2175V35.6567H2.0807C1.52956 35.6572 1.00072 35.4644 0.610252 35.1205C0.416007 34.9505 0.262006 34.748 0.157233 34.5248C0.0524607 34.3017 -0.000985192 34.0623 1.37486e-05 33.8206V2.35673C1.33209e-05 2.11534 0.0538585 1.87631 0.158468 1.65334C0.263078 1.43036 0.416398 1.2278 0.609657 1.05726C0.802915 0.886723 1.03232 0.751545 1.28474 0.659464C1.53716 0.567382 1.80764 0.520206 2.0807 0.520633H19.9283C20.0991 0.520297 20.2678 0.554018 20.4219 0.619284C20.5759 0.684551 20.7113 0.779683 20.818 0.897602L31.0486 9.67188V9.68163ZM21.0826 4.11484L28.0268 9.84412H21.0826V4.11484ZM7.35228 17.2958C7.25202 17.2978 7.15325 17.3176 7.06173 17.3538C6.97022 17.3901 6.88781 17.4421 6.81934 17.5069C6.75086 17.5717 6.6977 17.6479 6.66297 17.731C6.62823 17.8142 6.61262 17.9026 6.61705 17.9912C6.61051 18.08 6.62468 18.1691 6.65868 18.2529C6.69269 18.3367 6.74581 18.4134 6.81474 18.4783C6.88368 18.5432 6.96696 18.5949 7.05943 18.6302C7.15189 18.6655 7.25157 18.6836 7.35228 18.6834H20.954C21.0539 18.6813 21.1524 18.6617 21.2436 18.6256C21.3349 18.5896 21.4171 18.5378 21.4856 18.4734C21.554 18.409 21.6072 18.3332 21.6422 18.2504C21.6771 18.1676 21.6931 18.0795 21.6892 17.9912C21.6963 17.9021 21.6825 17.8127 21.6487 17.7285C21.615 17.6443 21.5619 17.5672 21.4929 17.5019C21.4239 17.4367 21.3405 17.3847 21.2477 17.3492C21.155 17.3137 21.055 17.2955 20.954 17.2958H7.35228ZM7.35228 22.2581C7.2541 22.2606 7.15747 22.2804 7.06811 22.3164C6.97875 22.3525 6.89846 22.404 6.83198 22.4679C6.7655 22.5318 6.71418 22.6068 6.68106 22.6886C6.64793 22.7703 6.63367 22.8571 6.63911 22.9438C6.63161 23.0315 6.64434 23.1197 6.67653 23.203C6.70872 23.2862 6.7597 23.3629 6.82639 23.4282C6.89307 23.4935 6.97407 23.5462 7.06446 23.583C7.15486 23.6199 7.25278 23.6401 7.35228 23.6425H16.0647V22.2581H7.35228ZM7.35228 27.2172C7.25407 27.2205 7.15761 27.2411 7.06858 27.2779C6.97956 27.3148 6.89979 27.367 6.83399 27.4315C6.76819 27.496 6.71769 27.5716 6.68548 27.6537C6.65327 27.7357 6.64 27.8227 6.64646 27.9094C6.64 27.9961 6.65327 28.083 6.68548 28.1651C6.71769 28.2472 6.76819 28.3227 6.83399 28.3873C6.89979 28.4518 6.97956 28.504 7.06858 28.5408C7.15761 28.5776 7.25407 28.5983 7.35228 28.6016H16.0647V27.2172H7.35228ZM7.35228 12.3367C7.25157 12.3365 7.15189 12.3546 7.05943 12.3898C6.96696 12.4251 6.88368 12.4768 6.81474 12.5417C6.74581 12.6066 6.69269 12.6833 6.65868 12.7671C6.62468 12.8509 6.61051 12.94 6.61705 13.0289C6.61051 13.1177 6.62468 13.2068 6.65868 13.2906C6.69269 13.3744 6.74581 13.4511 6.81474 13.516C6.88368 13.5809 6.96696 13.6326 7.05943 13.6679C7.15189 13.7031 7.25157 13.7212 7.35228 13.721H15.3993C15.4972 13.7173 15.5933 13.6964 15.6819 13.6594C15.7705 13.6224 15.8498 13.5701 15.9152 13.5056C15.9806 13.4411 16.0308 13.3657 16.0628 13.2839C16.0948 13.202 16.1079 13.1153 16.1015 13.0289C16.1079 12.9424 16.0948 12.8557 16.0628 12.7739C16.0308 12.692 15.9806 12.6166 15.9152 12.5521C15.8498 12.4876 15.7705 12.4353 15.6819 12.3983C15.5933 12.3613 15.4972 12.3404 15.3993 12.3367H7.35228ZM7.35228 7.37757C7.25407 7.38086 7.15761 7.40152 7.06858 7.43833C6.97956 7.47514 6.89979 7.52735 6.83399 7.59188C6.76819 7.65642 6.71769 7.73195 6.68548 7.81403C6.65327 7.89611 6.64 7.98307 6.64646 8.06976C6.64 8.15645 6.65327 8.24341 6.68548 8.32549C6.71769 8.40757 6.76819 8.48311 6.83399 8.54764C6.89979 8.61217 6.97956 8.66439 7.06858 8.7012C7.15761 8.73801 7.25407 8.75867 7.35228 8.76196H11.7636C11.8615 8.75825 11.9576 8.73728 12.0462 8.70028C12.1348 8.66328 12.2141 8.611 12.2795 8.54652C12.345 8.48203 12.3951 8.40663 12.4271 8.32476C12.4591 8.24289 12.4722 8.15619 12.4658 8.06976C12.4722 7.98333 12.4591 7.89664 12.4271 7.81476C12.3951 7.73289 12.345 7.6575 12.2795 7.59301C12.2141 7.52852 12.1348 7.47624 12.0462 7.43925C11.9576 7.40225 11.8615 7.38128 11.7636 7.37757H7.35228ZM30.8795 26.7752C31.0776 26.7574 31.2777 26.7789 31.4652 26.8379C31.6527 26.8969 31.8231 26.9921 31.9638 27.1166C32.1046 27.241 32.2123 27.3916 32.2791 27.5574C32.3459 27.7232 32.3701 27.9 32.35 28.0751C32.3428 28.2903 32.2789 28.5011 32.1634 28.6906C32.0478 28.8802 31.8839 29.0433 31.6846 29.167C31.2467 29.4845 30.6959 29.6548 30.1296 29.648C29.7389 29.6662 29.3554 29.5497 29.0598 29.323C28.9255 29.2128 28.8198 29.0782 28.75 28.9284C28.6802 28.7786 28.648 28.6172 28.6555 28.4553C28.6578 28.2286 28.7182 28.0052 28.8322 27.802C28.9461 27.5988 29.1107 27.4211 29.3135 27.2822C29.7488 26.9511 30.3053 26.771 30.8795 26.7752ZM28.5121 36.8656V31.7603H27.4093C27.4093 30.4377 30.159 31.2956 32.1882 30.8471V36.8656H28.5121Z" fill="#FDF6F6"/>
</svg>
