<svg width="40" height="38" viewBox="0 0 40 38" fill="none" xmlns="http://www.w3.org/2000/svg">
<g clip-path="url(#clip0_395_952)">
<path fill-rule="evenodd" clip-rule="evenodd" d="M10.5874 12.1763C9.25932 12.1763 8.18149 11.1438 8.18149 9.87158C8.18149 8.59939 9.25932 7.56689 10.5874 7.56689C11.9154 7.56689 12.9932 8.59939 12.9932 9.87158C12.9932 11.1438 11.9154 12.1763 10.5874 12.1763ZM10.5874 5.26221C7.93007 5.26221 5.77561 7.32605 5.77561 9.87158C5.77561 12.4171 7.93007 14.481 10.5874 14.481C13.2446 14.481 15.3991 12.4171 15.3991 9.87158C15.3991 7.32605 13.2446 5.26221 10.5874 5.26221ZM37.052 20.3902L29.8344 13.3286L17.8759 24.98L12.9932 20.2427L3.36974 28.6974V5.26221C3.36974 3.99002 4.44757 2.95752 5.77561 2.95752H34.6461C35.9741 2.95752 37.052 3.99002 37.052 5.26221V20.3902ZM37.052 32.9185C37.052 34.1906 35.9741 35.2231 34.6461 35.2231H28.4293L19.5661 26.6209L29.8344 16.7845L37.052 23.6986V32.9185ZM5.77561 35.2231C4.44757 35.2231 3.36974 34.1906 3.36974 32.9185V31.8364L12.9271 23.6363L25.0238 35.2231H5.77561ZM34.6461 0.652832H5.77561C3.11833 0.652832 0.963867 2.71668 0.963867 5.26221V32.9185C0.963867 35.464 3.11833 37.5278 5.77561 37.5278H34.6461C37.3034 37.5278 39.4578 35.464 39.4578 32.9185V5.26221C39.4578 2.71668 37.3034 0.652832 34.6461 0.652832Z" fill="white"/>
</g>
<defs>
<clipPath id="clip0_395_952">
<rect width="38.494" height="36.875" fill="white" transform="translate(0.963867 0.652832)"/>
</clipPath>
</defs>
</svg>
