<svg width="110" height="105" viewBox="0 0 110 105" fill="none" xmlns="http://www.w3.org/2000/svg">
<g clip-path="url(#clip0_11_266)">
<path d="M21.7265 20.739L21.7266 20.739C27.0441 15.6631 34.0137 13.1251 40.9831 13.1251C47.9525 13.1251 54.922 15.6631 60.2397 20.739L60.2397 20.739C65.5573 25.8149 68.2162 32.4676 68.2162 39.1203C68.2162 45.7729 65.5573 52.4257 60.2397 57.5016C54.9221 62.5775 47.9525 65.1155 40.9831 65.1155C34.0137 65.1155 27.0441 62.5775 21.7265 57.5016L21.7265 57.5016C16.4089 52.4257 13.7501 45.7729 13.7501 39.1203C13.7501 32.4677 16.4089 25.8149 21.7265 20.7391L21.7265 20.739ZM23.5494 22.4789L23.5493 22.479L23.5493 22.479C18.7353 27.0742 16.3282 33.0972 16.3282 39.1203C16.3282 45.1433 18.7353 51.1664 23.5493 55.7616L23.5493 55.7617C28.3633 60.3568 34.6732 62.6546 40.9831 62.6546C47.2929 62.6546 53.6028 60.3569 58.4169 55.7617C63.2309 51.1663 65.638 45.1433 65.638 39.1203C65.638 33.0973 63.2309 27.0742 58.4169 22.479L58.4168 22.4789C53.6027 17.8837 47.2929 15.5861 40.9831 15.5861C34.6733 15.5861 28.3634 17.8837 23.5494 22.4789Z" fill="black"/>
<path d="M25.2988 24.1489C29.6299 20.0147 35.3066 17.9474 40.9831 17.9474C46.6595 17.9474 52.3362 20.0147 56.6673 24.1489C60.9985 28.2832 63.1641 33.7018 63.1641 39.1202C63.1641 44.5387 60.9985 49.9573 56.6673 54.0916C52.3362 58.2259 46.6595 60.2931 40.9831 60.2931C35.3066 60.2931 29.6299 58.2259 25.2988 54.0916C20.9677 49.9573 18.8021 44.5387 18.8021 39.1202C18.8021 33.7018 20.9677 28.2831 25.2988 24.1489ZM40.9831 20.4084C35.9661 20.4084 30.9492 22.2353 27.1216 25.8889C23.294 29.5425 21.3801 34.3314 21.3801 39.1203C21.3801 43.9092 23.294 48.6981 27.1216 52.3517C30.9492 56.0053 35.9661 57.8322 40.9831 57.8322C46 57.8322 51.0169 56.0054 54.8445 52.3517C58.6721 48.6981 60.586 43.9092 60.586 39.1203C60.586 34.3314 58.6722 29.5425 54.8445 25.8889C51.0169 22.2353 46 20.4084 40.9831 20.4084Z" fill="black"/>
<path d="M63.2097 52.3755C62.7064 51.895 61.8902 51.895 61.3869 52.3755C60.8836 52.8559 60.8836 53.635 61.3869 54.1154L93.1381 84.4234L88.4435 88.9046L56.6923 58.5966C56.189 58.1162 55.3728 58.1162 54.8695 58.5966C54.3662 59.0771 54.3662 59.8562 54.8695 60.3366L87.5274 91.5101L87.532 91.5146C88.0354 91.9951 88.8516 91.9951 89.355 91.5146L89.3549 91.5146L95.8677 85.2979L95.8725 85.2934C96.3759 84.8129 96.3759 84.0338 95.8725 83.5533L95.8724 83.5534L63.2097 52.3755Z" fill="black"/>
<path d="M37.9125 41.2336H38.6573C39.0025 41.2336 39.3159 41.3631 39.5473 41.574C39.789 41.7547 40.0378 41.8985 40.2898 41.9955C40.5148 42.0823 40.7469 42.1299 40.9831 42.1299C41.2193 42.1299 41.4513 42.0823 41.6763 41.9955C41.9543 41.8884 42.2282 41.7247 42.4931 41.5172L43.3088 42.4641L42.4913 41.5128C42.7312 41.3249 43.021 41.2335 43.3088 41.2336H43.3119H44.0537C45.926 41.2336 47.6274 41.9639 48.8598 43.1405C50.0923 44.3169 50.8574 45.9409 50.8574 47.7281V50.8866C50.8574 51.5661 50.2803 52.1171 49.5684 52.1171H32.3978C31.6859 52.1171 31.1088 51.5661 31.1088 50.8866V47.7281C31.1088 45.9409 31.8739 44.3169 33.1064 43.1405C34.3388 41.964 36.0401 41.2336 37.9125 41.2336ZM38.2317 43.6946H37.9125C36.7518 43.6946 35.6956 44.1488 34.9292 44.8804C34.1627 45.612 33.6869 46.6202 33.6869 47.7281V49.6561H48.2793V47.7281C48.2793 46.6202 47.8034 45.612 47.037 44.8804C46.2706 44.1488 45.2143 43.6946 44.0537 43.6946H43.7345C43.383 43.9308 43.0152 44.1267 42.6331 44.2738C42.102 44.4785 41.5501 44.5908 40.9831 44.5908C40.416 44.5908 39.8641 44.4785 39.333 44.2738C38.9509 44.1266 38.5832 43.9308 38.2317 43.6946Z" fill="#734612"/>
<path d="M40.9831 26.1235C42.9124 26.1235 44.6826 26.5843 45.9641 27.5624C47.1964 28.503 47.9488 29.8658 47.9488 31.6869C47.9488 33.5387 47.1046 36.0056 45.7687 37.8556C44.5487 39.5451 42.8888 40.7788 40.9831 40.7788C39.0773 40.7788 37.4175 39.5451 36.1975 37.8556C34.8616 36.0056 34.0173 33.5387 34.0173 31.6869C34.0173 29.8658 34.7697 28.503 36.0021 27.5624C37.2835 26.5843 39.0538 26.1235 40.9831 26.1235ZM44.3628 29.4755C43.5693 28.8698 42.3618 28.5844 40.9831 28.5844C39.6044 28.5844 38.3969 28.8698 37.6034 29.4755C36.9775 29.9531 36.5955 30.6806 36.5955 31.6869C36.5955 33.0963 37.2603 35.0048 38.3124 36.4617C39.087 37.5344 40.0352 38.3178 40.9831 38.3178C41.931 38.3178 42.8792 37.5345 43.6538 36.4617C44.7058 35.0048 45.3707 33.0963 45.3707 31.6869C45.3707 30.6806 44.9886 29.9531 44.3628 29.4755Z" fill="#734612"/>
</g>
<defs>
<clipPath id="clip0_11_266">
<rect width="110" height="105" fill="white"/>
</clipPath>
</defs>
</svg>
