<svg width="72" height="79" viewBox="0 0 72 79" fill="none" xmlns="http://www.w3.org/2000/svg">
<path d="M46.728 27.5606H21.816C19.872 27.5606 18.36 29.2737 18.36 31.2983V31.9213C18.36 32.2327 18.648 32.5442 18.936 32.5442H42.048C43.992 32.5442 45.504 34.2573 45.504 36.2819V54.1917C45.504 54.5032 45.792 54.8147 46.08 54.8147H46.656C48.6 54.8147 50.112 53.1016 50.112 51.077V31.2983C50.184 29.2737 48.6 27.5606 46.728 27.5606Z" fill="#FDF6F6"/>
<path d="M54.216 19.5401H29.304C27.36 19.5401 25.848 21.2532 25.848 23.2778V23.9008C25.848 24.2122 26.136 24.5237 26.424 24.5237H49.536C51.48 24.5237 52.992 26.2368 52.992 28.2614V46.1712C52.992 46.4827 53.28 46.7942 53.568 46.7942H54.144C56.088 46.7942 57.6 45.0811 57.6 43.0565V23.2778C57.672 21.2532 56.088 19.5401 54.216 19.5401Z" fill="#FDF6F6"/>
<path d="M27.72 50.3762C28.08 50.7655 28.584 50.7655 28.944 50.3762L42.12 37.1385C42.336 36.6713 42.264 35.8147 41.328 35.8147L15.336 35.8926C14.616 35.8926 14.04 36.5934 14.544 37.2163L27.72 50.3762ZM42.336 42.2778C42.336 41.6549 41.616 41.2655 41.184 41.7327L30.888 52.0114C30.168 52.7122 29.304 53.1016 28.368 53.1016C27.432 53.1016 26.568 52.7122 25.848 52.0893L15.624 41.7327C15.192 41.2655 14.472 41.577 14.472 42.2778C14.4 42.1221 14.4 56.6057 14.4 56.6057C14.4 58.0073 15.48 59.0975 16.704 59.0975H39.96C41.256 59.0975 42.264 57.9294 42.264 56.6057V42.2778H42.336Z" fill="#FDF6F6"/>
</svg>
