<svg width="47" height="39" viewBox="0 0 47 39" fill="none" xmlns="http://www.w3.org/2000/svg">
<path d="M44.0733 23.6181C43.9983 23.3399 43.992 22.9906 44.1982 22.7772C45.3489 20.5898 46.0047 18.1317 45.958 15.5465C45.8118 7.44145 38.7644 0.998194 30.2958 1.15049C26.6564 1.21594 23.3196 2.53404 20.6966 4.60812C29.4792 6.3373 36.1243 13.7663 36.2857 22.7098C36.3311 25.2251 35.8853 27.6794 34.9445 29.863C36.338 29.4885 37.6577 28.9056 38.9036 28.1144C39.1811 27.9696 39.4598 27.8947 39.7422 28.0294L44.2505 29.5559C45.0254 29.8215 45.7814 29.0391 45.5563 28.2044L44.0733 23.6181Z" fill="#FDF6F6"/>
<path d="M16.4241 8.38931C7.95549 8.54161 1.14513 15.2341 1.29138 23.3391C1.33803 25.9243 2.08204 28.3572 3.38092 30.5006C3.52594 30.7775 3.60097 31.0558 3.53603 31.3365L2.15074 36.0443C1.88591 36.8878 2.66965 37.6425 3.50448 37.3479L7.95475 35.6603C8.23345 35.5854 8.58339 35.5791 8.79588 35.7151C11.2007 37.0697 13.9441 37.7892 16.9536 37.7351C25.4223 37.5828 32.2326 30.8903 32.0864 22.7853C31.9401 14.6803 24.8927 8.23701 16.4241 8.38931ZM8.34067 26.0081C6.80092 26.0358 5.51843 24.8007 5.4907 23.2636C5.46296 21.7264 6.70006 20.4461 8.23981 20.4184C9.77956 20.3907 11.062 21.6257 11.0898 23.1629C11.1175 24.7001 9.88042 25.9804 8.34067 26.0081ZM16.7393 25.857C15.1996 25.8847 13.9171 24.6497 13.8893 23.1125C13.8616 21.5754 15.0987 20.2951 16.6384 20.2674C18.1782 20.2397 19.4607 21.4747 19.4884 23.0119C19.5162 24.549 18.2791 25.8293 16.7393 25.857ZM25.1379 25.706C23.5982 25.7337 22.3157 24.4987 22.288 22.9615C22.2602 21.4243 23.4973 20.144 25.0371 20.1163C26.5768 20.0886 27.8593 21.3237 27.8871 22.8608C27.9148 24.398 26.6777 25.6783 25.1379 25.706Z" fill="#FDF6F6"/>
</svg>
