<svg width="54" height="63" viewBox="0 0 54 63" fill="none" xmlns="http://www.w3.org/2000/svg">
<path fill-rule="evenodd" clip-rule="evenodd" d="M37.8145 26.8775C43.8284 30.7157 49.2619 32.5291 53.925 32.1009C54.7405 48.683 48.6565 58.4801 37.8745 62.5652C27.4628 58.737 21.3088 49.368 21.7641 31.8491C27.2377 32.1362 32.6111 30.9474 37.8145 26.8775ZM9.46113 26.8926C8.76068 26.8926 8.19531 26.268 8.19531 25.4973C8.19531 24.7266 8.76068 24.102 9.46113 24.102H16.931C17.6314 24.102 18.1968 24.7266 18.1968 25.4973C18.1968 26.268 17.6314 26.8926 16.931 26.8926H9.46113ZM40.5613 9.12676H45.0942C45.9848 9.12676 46.7953 9.49447 47.3857 10.0838C47.9711 10.6731 48.3363 11.4942 48.3363 12.3908V26.6357C47.4257 26.3183 46.5001 25.9506 45.5595 25.5426V12.3908C45.5595 12.2649 45.5095 12.144 45.4194 12.0634C45.3344 11.9778 45.2193 11.9223 45.0942 11.9223H40.5613V23.019C39.6507 22.5002 38.7301 21.9411 37.7995 21.3467L37.7845 21.3568V3.93353C37.7845 3.8076 37.7345 3.68671 37.6444 3.60612C37.5643 3.52049 37.4443 3.46508 37.3192 3.46508H3.2421C3.11702 3.46508 2.99694 3.51545 2.91689 3.60612C2.82683 3.69175 2.7768 3.8076 2.7768 3.93353V42.6889C2.7768 42.8148 2.82683 42.9357 2.91689 43.0163C3.00195 43.1019 3.11702 43.1573 3.2421 43.1573H17.9116C18.1017 44.1144 18.3169 45.0462 18.552 45.9479H10.5468V45.9529V51.1461C10.5468 51.2721 10.5969 51.393 10.6869 51.4735C10.772 51.5592 10.8871 51.6146 11.0121 51.6146H20.4833C20.8985 52.5867 21.3538 53.5186 21.8342 54.4102H11.0121C10.1216 54.4102 9.31104 54.0425 8.72065 53.4531C8.13527 52.8638 7.77004 52.0478 7.77004 51.1461V45.9529H3.2421C2.35152 45.9529 1.541 45.5852 0.950616 44.9958C0.365237 44.4015 0 43.5855 0 42.6889V3.93353C0 3.03189 0.365237 2.22092 0.950616 1.62654C1.536 1.0372 2.34652 0.669495 3.2421 0.669495H37.3192C38.2098 0.669495 39.0203 1.0372 39.6107 1.62654C40.1961 2.21588 40.5613 3.03693 40.5613 3.93353V9.12676ZM9.46113 11.9526C8.76068 11.9526 8.19531 11.328 8.19531 10.5573C8.19531 9.78662 8.76068 9.16202 9.46113 9.16202H30.2146C30.915 9.16202 31.4804 9.78662 31.4804 10.5573C31.4804 11.328 30.915 11.9526 30.2146 11.9526H9.46113ZM9.46113 19.4226C8.76068 19.4226 8.19531 18.798 8.19531 18.0273C8.19531 17.2566 8.76068 16.632 9.46113 16.632H30.2146C30.915 16.632 31.4804 17.2566 31.4804 18.0273C31.4804 18.798 30.915 19.4226 30.2146 19.4226H9.46113ZM37.9446 32.5492C42.0473 35.1685 45.7497 36.4026 48.9317 36.1104C49.4871 47.4187 45.3394 54.0979 37.9896 56.8834C37.9446 56.8683 37.8996 56.8481 37.8495 56.833V32.6197L37.9446 32.5492ZM37.8195 28.9225C43.143 32.3175 47.9511 33.9294 52.0788 33.5466C52.7992 48.2246 47.4157 56.8934 37.8745 60.5151C28.6586 57.1302 23.21 48.8341 23.6103 33.3249C28.4634 33.5818 33.2165 32.5291 37.8195 28.9225Z" fill="#FDF6F6"/>
<path fill-rule="evenodd" clip-rule="evenodd" d="M37.8145 26.8775C43.8284 30.7157 49.2619 32.5291 53.925 32.1009C54.7405 48.683 48.6565 58.4801 37.8745 62.5652C27.4628 58.737 21.3088 49.368 21.7641 31.8491C27.2377 32.1362 32.6111 30.9474 37.8145 26.8775ZM9.46113 26.8926C8.76068 26.8926 8.19531 26.268 8.19531 25.4973C8.19531 24.7266 8.76068 24.102 9.46113 24.102H16.931C17.6314 24.102 18.1968 24.7266 18.1968 25.4973C18.1968 26.268 17.6314 26.8926 16.931 26.8926H9.46113ZM40.5613 9.12676H45.0942C45.9848 9.12676 46.7953 9.49447 47.3857 10.0838C47.9711 10.6731 48.3363 11.4942 48.3363 12.3908V26.6357C47.4257 26.3183 46.5001 25.9506 45.5595 25.5426V12.3908C45.5595 12.2649 45.5095 12.144 45.4194 12.0634C45.3344 11.9778 45.2193 11.9223 45.0942 11.9223H40.5613V23.019C39.6507 22.5002 38.7301 21.9411 37.7995 21.3467L37.7845 21.3568V3.93353C37.7845 3.8076 37.7345 3.68671 37.6444 3.60612C37.5643 3.52049 37.4443 3.46508 37.3192 3.46508H3.2421C3.11702 3.46508 2.99694 3.51545 2.91689 3.60612C2.82683 3.69175 2.7768 3.8076 2.7768 3.93353V42.6889C2.7768 42.8148 2.82683 42.9357 2.91689 43.0163C3.00195 43.1019 3.11702 43.1573 3.2421 43.1573H17.9116C18.1017 44.1144 18.3169 45.0462 18.552 45.9479H10.5468V45.9529V51.1461C10.5468 51.2721 10.5969 51.393 10.6869 51.4735C10.772 51.5592 10.8871 51.6146 11.0121 51.6146H20.4833C20.8985 52.5867 21.3538 53.5186 21.8342 54.4102H11.0121C10.1216 54.4102 9.31104 54.0425 8.72065 53.4531C8.13527 52.8638 7.77004 52.0478 7.77004 51.1461V45.9529H3.2421C2.35152 45.9529 1.541 45.5852 0.950616 44.9958C0.365237 44.4015 0 43.5855 0 42.6889V3.93353C0 3.03189 0.365237 2.22092 0.950616 1.62654C1.536 1.0372 2.34652 0.669495 3.2421 0.669495H37.3192C38.2098 0.669495 39.0203 1.0372 39.6107 1.62654C40.1961 2.21588 40.5613 3.03693 40.5613 3.93353V9.12676ZM9.46113 11.9526C8.76068 11.9526 8.19531 11.328 8.19531 10.5573C8.19531 9.78662 8.76068 9.16202 9.46113 9.16202H30.2146C30.915 9.16202 31.4804 9.78662 31.4804 10.5573C31.4804 11.328 30.915 11.9526 30.2146 11.9526H9.46113ZM9.46113 19.4226C8.76068 19.4226 8.19531 18.798 8.19531 18.0273C8.19531 17.2566 8.76068 16.632 9.46113 16.632H30.2146C30.915 16.632 31.4804 17.2566 31.4804 18.0273C31.4804 18.798 30.915 19.4226 30.2146 19.4226H9.46113ZM37.9446 32.5492C42.0473 35.1685 45.7497 36.4026 48.9317 36.1104C49.4871 47.4187 45.3394 54.0979 37.9896 56.8834C37.9446 56.8683 37.8996 56.8481 37.8495 56.833V32.6197L37.9446 32.5492ZM37.8195 28.9225C43.143 32.3175 47.9511 33.9294 52.0788 33.5466C52.7992 48.2246 47.4157 56.8934 37.8745 60.5151C28.6586 57.1302 23.21 48.8341 23.6103 33.3249C28.4634 33.5818 33.2165 32.5291 37.8195 28.9225Z" fill="#FDF6F6"/>
</svg>
