<svg width="24" height="24" viewBox="0 0 24 24" fill="none" xmlns="http://www.w3.org/2000/svg">
<g clip-path="url(#clip0_11_283)">
<path d="M8.7885 17.5007C4.02807 17.5007 0.153941 13.5761 0.152253 8.7525C0.151128 6.42656 1.04569 4.23356 2.67113 2.57737C4.30463 0.915188 6.47663 0 8.787 0C11.0991 0 13.2675 0.910688 14.9019 2.56444C16.5351 4.21763 17.4345 6.414 17.4345 8.74894C17.4349 11.0751 16.5409 13.2669 14.9173 14.9205C13.2806 16.5844 11.1066 17.5007 8.79563 17.5007C8.79544 17.5007 8.79582 17.5007 8.79563 17.5007L8.78832 17.1257L8.79375 16.7507C10.9037 16.7507 12.888 15.9141 14.3824 14.3949C15.8672 12.8828 16.6847 10.8776 16.6843 8.74912C16.6843 6.61256 15.8618 4.6035 14.3681 3.09169C12.876 1.58156 10.8971 0.75 8.79619 0.75C6.6795 0.75 4.69744 1.58569 3.20625 3.10294C1.71938 4.61775 0.901316 6.62419 0.902253 8.75212C0.903566 13.1625 4.4415 16.7507 8.7885 16.7507V17.5007Z" fill="#282D33"/>
<path d="M8.78907 15.4372C7.02713 15.4372 5.36926 14.7405 4.12107 13.4752C2.87401 12.2111 2.18776 10.5334 2.18851 8.75081C2.18813 6.97256 2.87213 5.29706 4.11488 4.03331C5.36326 2.76206 7.02413 2.06118 8.79151 2.06006C10.5581 2.06006 12.2169 2.75718 13.4646 4.02318C14.7114 5.28506 15.3994 6.963 15.4013 8.74743C15.4016 10.5264 14.7176 12.2012 13.4754 13.4638C12.225 14.7362 10.5626 15.4371 8.79432 15.4372H8.78907ZM8.79395 2.81006C7.22738 2.811 5.75644 3.432 4.65001 4.55906C3.54601 5.68181 2.93832 7.17037 2.9387 8.751C2.93813 10.3352 3.54769 11.8258 4.65526 12.9486C5.76132 14.0698 7.22944 14.6872 8.78926 14.6872V15.0622L8.79413 14.6872C10.3599 14.6871 11.8326 14.0659 12.9409 12.9381C14.0445 11.8166 14.652 10.3284 14.6516 8.74781C14.6501 7.16193 14.0389 5.67112 12.9309 4.54987C11.8251 3.42787 10.356 2.81006 8.79395 2.81006Z" fill="#282D33"/>
<path d="M5.24719 8.75005L4.49719 8.74986C4.49738 7.59336 4.94213 6.5038 5.74932 5.68236C6.56269 4.85474 7.64363 4.39893 8.79282 4.39893V5.14893C7.84632 5.14893 6.9555 5.52505 6.28444 6.20811C5.61563 6.88855 5.24738 7.79136 5.24719 8.75005Z" fill="#282D33"/>
<path d="M21.4165 24C21.0966 24 20.7788 23.9347 20.472 23.8059L20.403 23.7771L14.595 17.8907L17.814 14.6293L23.6286 20.5213L23.6567 20.5899C23.9756 21.3701 23.8926 22.2141 23.4283 22.9054C22.9682 23.5907 22.216 24 21.4165 24ZM20.829 23.1409C21.561 23.4156 22.3701 23.1364 22.8058 22.4874C23.1152 22.0264 23.1803 21.4663 22.9881 20.9402L17.814 15.6971L15.6486 17.8907L20.829 23.1409Z" fill="#282D33"/>
<path d="M19.302 17.2859L18.768 16.7592L16.6907 18.8655L17.2247 19.3921L19.302 17.2859Z" fill="#282D33"/>
<path d="M16.5388 16.0662L15.0722 14.5795L14.5382 15.1062L16.0049 16.5929L16.5388 16.0662Z" fill="#282D33"/>
</g>
<defs>
<clipPath id="clip0_11_283">
<rect width="24" height="24" fill="white"/>
</clipPath>
</defs>
</svg>
