<svg width="22" height="22" viewBox="0 0 22 22" fill="none" xmlns="http://www.w3.org/2000/svg">
<g clip-path="url(#clip0_135_8286)">
<path fill-rule="evenodd" clip-rule="evenodd" d="M19.5197 11C19.5197 10.5212 19.4757 10.032 19.3864 9.54282L21.7948 7.45541L19.5094 3.54977L16.4708 4.56306C15.7034 3.92636 14.8285 3.42423 13.9058 3.09164L13.2795 0H8.72158L8.09525 3.09036C7.16219 3.42423 6.3029 3.91859 5.52902 4.56177L2.49172 3.54977L0.206299 7.45541L2.61466 9.54282C2.52535 10.032 2.48135 10.5212 2.48135 11C2.48135 11.4788 2.52535 11.968 2.61465 12.4572L0.206299 14.5446L2.49171 18.4502L5.5303 17.4369C6.29771 18.0736 7.17253 18.5758 8.09525 18.9084L8.72158 22H13.2795L13.9058 18.9096C14.8376 18.5758 15.6982 18.0814 16.4721 17.4382L19.5094 18.4515L21.7948 14.5459L19.3864 12.4585C19.4757 11.968 19.5197 11.4788 19.5197 11M11.0005 15.5294C8.50288 15.5294 6.47111 13.4976 6.47111 11C6.47111 8.50236 8.50288 6.47059 11.0005 6.47059C13.4982 6.47059 15.5299 8.50236 15.5299 11C15.5299 13.4976 13.4982 15.5294 11.0005 15.5294Z" fill="black"/>
</g>
<defs>
<clipPath id="clip0_135_8286">
<rect width="22" height="22" fill="white"/>
</clipPath>
</defs>
</svg>
