<svg width="62" height="61" viewBox="0 0 62 61" fill="none" xmlns="http://www.w3.org/2000/svg">
<path d="M31 59.7291C47.4075 59.7291 60.7083 46.6428 60.7083 30.5C60.7083 14.3572 47.4075 1.27081 31 1.27081C14.5925 1.27081 1.29167 14.3572 1.29167 30.5C1.29167 46.6428 14.5925 59.7291 31 59.7291Z" fill="#FFCE52"/>
<path d="M31 49.5625C21.7413 49.5625 14.2083 43.2909 14.2083 35.5833H16.7917C16.7917 41.8892 23.1661 47.0208 31 47.0208C38.834 47.0208 45.2083 41.8892 45.2083 35.5833H47.7917C47.7917 43.2909 40.2587 49.5625 31 49.5625Z" fill="#273941"/>
<path d="M25.8333 26.6875H23.25C23.25 23.884 21.5114 21.6042 19.375 21.6042C17.2386 21.6042 15.5 23.884 15.5 26.6875H12.9167C12.9167 22.4823 15.8139 19.0625 19.375 19.0625C22.9361 19.0625 25.8333 22.4823 25.8333 26.6875Z" fill="#273941"/>
<path d="M49.0833 26.6875H46.5C46.5 23.884 44.7614 21.6042 42.625 21.6042C40.4886 21.6042 38.75 23.884 38.75 26.6875H36.1667C36.1667 22.4823 39.0639 19.0625 42.625 19.0625C46.1861 19.0625 49.0833 22.4823 49.0833 26.6875Z" fill="#273941"/>
<path d="M31 5.08331C46.6938 5.08331 59.4167 15.8943 59.4167 29.2291H60.676C60.32 21.7211 57.0379 14.6366 51.5115 9.44724C45.9852 4.25784 38.6394 1.36243 31 1.36243C23.3606 1.36243 16.0148 4.25784 10.4885 9.44724C4.96214 14.6366 1.68005 21.7211 1.32396 29.2291H2.58333C2.58333 15.8943 15.3063 5.08331 31 5.08331Z" fill="#FFE369"/>
<path d="M59.4167 29.2291C59.4167 42.564 46.6938 53.375 31 53.375C15.3063 53.375 2.58334 42.564 2.58334 29.2291H1.32396C1.30588 29.651 1.29167 30.0742 1.29167 30.5C1.29167 38.252 4.42165 45.6866 9.99304 51.1681C15.5644 56.6496 23.1209 59.7291 31 59.7291C38.8791 59.7291 46.4356 56.6496 52.007 51.1681C57.5784 45.6866 60.7083 38.252 60.7083 30.5C60.7083 30.0742 60.6941 29.651 60.676 29.2291H59.4167Z" fill="#FFB32B"/>
<path d="M48.8406 12.4683C49.2566 12.0587 49.1242 11.265 48.5449 10.6954C47.9656 10.1259 47.1588 9.9962 46.7428 10.4058C46.3268 10.8154 46.4591 11.6091 47.0384 12.1786C47.6177 12.7482 48.4245 12.8779 48.8406 12.4683Z" fill="#F6FAFD"/>
<path d="M40.237 6.23384C40.4453 6.0288 40.3793 5.63173 40.0896 5.34696C39.8 5.06219 39.3964 4.99756 39.1881 5.20259C38.9799 5.40763 39.0458 5.80471 39.3355 6.08948C39.6251 6.37425 40.0287 6.43888 40.237 6.23384Z" fill="#F6FAFD"/>
<path d="M46.015 10.9592C46.847 10.1401 46.5819 8.55219 45.4228 7.4126C44.2637 6.27302 42.6496 6.01327 41.8176 6.83244C40.9856 7.65161 41.2507 9.23949 42.4098 10.3791C43.5689 11.5187 45.183 11.7784 46.015 10.9592Z" fill="#F6FAFD"/>
</svg>
