<svg width="42" height="39" viewBox="0 0 42 39" fill="none" xmlns="http://www.w3.org/2000/svg">
<path d="M17.2658 12.2107C17.2658 11.1021 18.237 10.2029 19.4355 10.2029C20.634 10.2029 21.6052 11.1021 21.6052 12.2107V20.6242L27.6214 23.0705C28.7174 23.5167 29.2145 24.6996 28.7321 25.7126C28.2498 26.7256 26.9709 27.1854 25.8758 26.74L18.6735 23.8111C17.8507 23.5258 17.2658 22.792 17.2658 21.9316V12.2107ZM0.442827 12.798C0.380483 12.6272 0.341929 12.4459 0.331264 12.257L0.00313947 6.68059C-0.058384 5.57654 0.860366 4.63564 2.05392 4.57949C3.24748 4.52258 4.26466 5.37243 4.32537 6.47647L4.38607 7.50843C5.28004 6.44431 6.29209 5.46975 7.40564 4.60074C8.87974 3.45041 10.554 2.46929 12.4104 1.70367C17.7153 -0.485449 23.4723 -0.480138 28.4901 1.29771C33.4571 3.05811 37.7072 6.55387 40.0894 11.3768C40.1525 11.4815 40.2058 11.5922 40.2485 11.7076C42.5339 16.5684 42.5068 21.8246 40.607 26.4137C38.7038 31.0082 34.9247 34.9395 29.7108 37.1423C29.3878 37.3097 29.0236 37.3973 28.6534 37.3965C27.4549 37.3965 26.4836 36.4981 26.4836 35.3895C26.4836 34.5169 27.0858 33.7748 27.9266 33.4986C28.5574 33.2307 29.162 32.9318 29.7386 32.6032C29.8043 32.5531 29.874 32.5061 29.9478 32.4621C30.8772 31.9066 31.7607 31.2708 32.5597 30.5621C32.6122 30.5158 32.6672 30.4718 32.7238 30.4315C34.4185 28.876 35.7163 27.0124 36.5554 24.9865C38.0861 21.2911 38.0952 17.0601 36.2191 13.1705L36.2183 13.1683C34.3422 9.27869 30.9363 6.45902 26.9471 5.04539C22.9522 3.63024 18.3781 3.62189 14.1732 5.35649C12.7395 5.94727 11.4029 6.72203 10.2029 7.65791C9.39408 8.28923 8.66072 8.98276 8.00857 9.72866L8.29158 9.69603C9.48021 9.56172 10.5622 10.3448 10.7074 11.4443C10.8526 12.5438 10.006 13.5446 8.8174 13.6789L2.82419 14.3618C1.70365 14.4878 0.678257 13.7996 0.442827 12.798ZM23.2549 38.8215C24.9677 38.644 25.7847 36.7781 24.6872 35.5466C24.2188 35.0207 23.5067 34.762 22.7767 34.8318C21.5002 34.9646 20.223 34.9623 18.9474 34.8219C18.1813 34.7377 17.434 35.0283 16.9631 35.5936C15.9492 36.8403 16.7539 38.6113 18.4249 38.8071C20.0311 38.9847 21.6471 38.9885 23.2549 38.8215ZM9.41294 35.7355C10.0626 36.1346 10.8706 36.1802 11.572 35.8675C13.0724 35.1801 13.2102 33.2565 11.8189 32.3953C10.7681 31.7541 9.75666 30.9566 8.89779 30.1068C8.11193 29.3328 6.82404 29.2531 5.93564 29.9254C5.7062 30.0994 5.5178 30.3151 5.38208 30.5591C5.24636 30.8032 5.16622 31.0703 5.14661 31.3442C5.12701 31.618 5.16835 31.8926 5.26809 32.1511C5.36782 32.4096 5.52383 32.6463 5.72646 32.8468C6.82076 33.9243 8.07748 34.9213 9.41294 35.7355ZM0.89646 25.1989C1.13599 25.9152 1.77583 26.4373 2.57072 26.5784C4.17361 26.8538 5.52466 25.4524 5.04232 24.0122C4.66005 22.874 4.42791 21.7161 4.33357 20.527C4.22201 19.1362 2.67572 18.2795 1.29349 18.8326C0.45103 19.1855 -0.0567433 19.9549 0.0047801 20.8108C0.121264 22.3026 0.416577 23.7701 0.89646 25.1989Z" fill="#FDF6F6"/>
</svg>
