<svg width="40" height="40" viewBox="0 0 40 40" fill="none" xmlns="http://www.w3.org/2000/svg">
<g clip-path="url(#clip0_11_189)">
<path fill-rule="evenodd" clip-rule="evenodd" d="M20 0C26.0249 0 30.9091 4.88416 30.9091 10.9091C30.9091 16.934 26.0249 21.8182 20 21.8182C13.9751 21.8182 9.0909 16.934 9.0909 10.9091C9.0909 4.88416 13.9751 0 20 0ZM3.63636 40.18C2.63221 40.18 1.81818 39.366 1.81818 38.3618V34.5455C1.81818 29.5247 5.88832 25.4545 10.9091 25.4545H29.0922C34.1129 25.4545 38.1831 29.5247 38.1831 34.5455V38.3618C38.1831 39.366 37.3691 40.18 36.3649 40.18C35.3607 40.18 4.6405 40.18 3.63636 40.18Z" fill="white"/>
</g>
<defs>
<clipPath id="clip0_11_189">
<rect width="40" height="40" fill="white"/>
</clipPath>
</defs>
</svg>
