<svg width="112" height="110" viewBox="0 0 112 110" fill="none" xmlns="http://www.w3.org/2000/svg">
<g clip-path="url(#clip0_11_257)">
<path d="M49.9858 63.9418H51.4447C51.7984 63.9418 52.1194 64.0792 52.3554 64.3027C52.9448 64.7673 53.56 65.1381 54.1923 65.3888C54.777 65.6206 55.3818 65.7479 56 65.7479C56.6182 65.7479 57.223 65.6206 57.8077 65.3888C58.4688 65.1267 59.111 64.7334 59.7247 64.2389L60.5553 65.2308L59.7229 64.2342C59.9672 64.0374 60.2622 63.9416 60.5553 63.9418H60.5584H62.0142C65.3468 63.9418 68.3757 65.2799 70.5705 67.4356C72.7655 69.5914 74.1279 72.5661 74.1279 75.8391V82.2042C74.1279 82.9161 73.5402 83.4933 72.8154 83.4933H39.1846C38.4597 83.4933 37.8721 82.9161 37.8721 82.2042V75.8391C37.8721 72.566 39.2345 69.5913 41.4295 67.4356C43.6243 65.2799 46.6532 63.9418 49.9858 63.9418ZM50.9983 66.5199H49.9858C47.3778 66.5199 45.0059 67.5688 43.2854 69.2585C41.565 70.9481 40.4971 73.2778 40.4971 75.8392V80.9152H71.5029V75.8392C71.5029 73.2778 70.435 70.9482 68.7146 69.2585C66.9942 67.5688 64.6222 66.5199 62.0142 66.5199H61.0017C60.2959 67.043 59.5539 67.4695 58.7818 67.7756C57.8856 68.1309 56.9551 68.326 56 68.326C55.0448 68.326 54.1143 68.1309 53.2181 67.7756C52.4461 67.4695 51.704 67.043 50.9983 66.5199Z" fill="#221333"/>
<path d="M56 36.5385C59.5199 36.5385 62.7225 37.3822 65.0031 39.1732C67.1314 40.8448 68.431 43.2837 68.431 46.5596C68.431 50.0774 66.8618 54.7785 64.3787 58.3166C62.1987 61.4229 59.2824 63.6913 56 63.6913C52.7176 63.6913 49.8014 61.4229 47.6214 58.3166C45.1383 54.7785 43.5691 50.0774 43.5691 46.5596C43.5691 43.2837 44.8687 40.8448 46.997 39.1732C49.2776 37.3822 52.4801 36.5385 56 36.5385ZM63.3726 41.1774C61.5889 39.7765 58.9593 39.1166 56 39.1166C53.0407 39.1166 50.4111 39.7765 48.6274 41.1774C47.1166 42.3639 46.1941 44.1372 46.1941 46.5596C46.1941 49.6139 47.5807 53.73 49.7747 56.8563C51.5013 59.3165 53.693 61.1131 56.0001 61.1131C58.3071 61.1131 60.4988 59.3165 62.2254 56.8563C64.4195 53.73 65.8061 49.6139 65.8061 46.5596C65.8061 44.1372 64.8835 42.3639 63.3727 41.1774H63.3726Z" fill="#221333"/>
<path d="M80.4886 47.0141H81.5238C81.8763 47.0141 82.1964 47.1507 82.4322 47.3729C82.8139 47.6707 83.21 47.9082 83.6149 48.0687C83.9845 48.2152 84.3663 48.2957 84.7561 48.2957C85.1458 48.2957 85.5277 48.2152 85.8973 48.0687C86.3297 47.8973 86.7521 47.638 87.1578 47.3112L87.9884 48.3032L87.1558 47.3066C87.4001 47.1097 87.6952 47.0139 87.9884 47.0141H87.9913H89.0236C91.4935 47.0141 93.738 48.0056 95.3644 49.6029C96.9907 51.2002 98.0003 53.4047 98.0003 55.8306V60.347C98.0003 61.0589 97.4126 61.6361 96.6878 61.6361H72.8243C72.0995 61.6361 71.5118 61.0589 71.5118 60.347V55.8306C71.5118 53.4047 72.5214 51.2002 74.1478 49.6029C75.774 48.0056 78.0186 47.0141 80.4886 47.0141ZM81.0833 49.5922H80.4886C78.7433 49.5922 77.1555 50.2945 76.0037 51.4258C74.8519 52.557 74.1368 54.1164 74.1368 55.8306V59.058H95.3753V55.8306C95.3753 54.1164 94.6602 52.557 93.5085 51.4257C92.3566 50.2945 90.7689 49.5922 89.0236 49.5922H88.4289C87.933 49.9484 87.4126 50.241 86.8715 50.4555C86.1904 50.7256 85.4828 50.8738 84.7561 50.8738C84.0295 50.8738 83.3218 50.7256 82.6407 50.4555C82.0996 50.241 81.5792 49.9484 81.0833 49.5922Z" fill="black"/>
<path d="M84.7558 26.5071C87.3348 26.5071 89.6905 27.1325 91.3808 28.46C92.9807 29.7165 93.9576 31.5438 93.9576 33.9921C93.9576 36.5556 92.8176 39.9763 91.0137 42.5466C89.401 44.8446 87.2265 46.5227 84.7558 46.5227C82.2851 46.5227 80.1106 44.8446 78.4978 42.5466C76.694 39.9763 75.554 36.5556 75.554 33.9922C75.554 31.5438 76.5308 29.7166 78.1308 28.46C79.8211 27.1325 82.1768 26.5071 84.7558 26.5071ZM89.7504 30.4642C88.5569 29.5268 86.7742 29.0852 84.7558 29.0852C82.7374 29.0852 80.9547 29.5268 79.7612 30.4642C78.7788 31.2357 78.179 32.3973 78.179 33.9922C78.179 36.0921 79.1363 38.928 80.6511 41.0865C81.8104 42.7383 83.2604 43.9446 84.7558 43.9446C86.2512 43.9446 87.7011 42.7383 88.8604 41.0864C90.3753 38.928 91.3326 36.0922 91.3326 33.9921C91.3326 32.3973 90.7328 31.2357 89.7504 30.4642Z" fill="black"/>
<path d="M22.9767 47.0141H24.0119C24.3644 47.0141 24.6845 47.1507 24.9203 47.3728C25.302 47.6707 25.6981 47.9082 26.103 48.0687C26.4726 48.2152 26.8545 48.2957 27.2442 48.2957C27.6339 48.2957 28.0158 48.2152 28.3854 48.0687C28.8178 47.8973 29.2402 47.638 29.6459 47.3112L30.4765 48.3032L29.6439 47.3066C29.8882 47.1097 30.1833 47.0139 30.4765 47.0141H30.4794H31.5117C33.9816 47.0141 36.2262 48.0056 37.8526 49.6029C39.4789 51.2002 40.4884 53.4047 40.4884 55.8306V60.347C40.4884 61.0589 39.9008 61.6361 39.1759 61.6361H15.3125C14.5877 61.6361 14 61.0589 14 60.347V55.8306C14 53.4047 15.0096 51.2002 16.6359 49.6029C18.2622 48.0056 20.5067 47.0141 22.9767 47.0141ZM23.5714 49.5922H22.9767C21.2314 49.5922 19.6437 50.2945 18.4918 51.4257C17.34 52.557 16.625 54.1164 16.625 55.8305V59.058H37.8634V55.8305C37.8634 54.1164 37.1484 52.557 35.9966 51.4257C34.8448 50.2945 33.257 49.5922 31.5118 49.5922H30.917C30.4211 49.9484 29.9007 50.241 29.3596 50.4555C28.6785 50.7256 27.9708 50.8738 27.2442 50.8738C26.5175 50.8738 25.8099 50.7256 25.1288 50.4555C24.5877 50.241 24.0673 49.9484 23.5714 49.5922Z" fill="black"/>
<path d="M27.2442 26.5067C29.8232 26.5067 32.1789 27.1321 33.8692 28.4597C35.4691 29.7162 36.446 31.5435 36.446 33.9918C36.446 36.5552 35.306 39.976 33.5022 42.5463C31.8894 44.8443 29.7149 46.5223 27.2442 46.5223C24.7734 46.5223 22.599 44.8442 20.9862 42.5462C19.1824 39.976 18.0424 36.5552 18.0424 33.9918C18.0424 31.5434 19.0192 29.7162 20.6192 28.4597C22.3095 27.1321 24.6652 26.5067 27.2442 26.5067ZM32.2388 30.4638C31.0453 29.5264 29.2626 29.0849 27.2442 29.0849C25.2258 29.0849 23.4431 29.5264 22.2496 30.4638C21.2672 31.2353 20.6674 32.397 20.6674 33.9918C20.6674 36.0918 21.6247 38.9276 23.1396 41.086C24.2989 42.7379 25.7488 43.9442 27.2442 43.9442C28.7396 43.9442 30.1896 42.738 31.3489 41.0861C32.8637 38.9276 33.821 36.0918 33.821 33.9918C33.821 32.397 33.2212 31.2353 32.2388 30.4638Z" fill="black"/>
</g>
<defs>
<clipPath id="clip0_11_257">
<rect width="112" height="110" fill="white"/>
</clipPath>
</defs>
</svg>
