<svg width="110" height="120" viewBox="0 0 110 120" fill="none" xmlns="http://www.w3.org/2000/svg">
<path d="M32.7989 53.8969V58.6425C32.7989 64.1438 28.6928 68.6231 23.65 68.6231C18.6072 68.6231 14.5011 64.1438 14.5011 58.6425V53.8688C14.9548 53.9925 15.4206 54.0825 15.9122 54.0825H30.9994C31.6147 54.0825 32.2128 54.0132 32.7989 53.8969Z" fill="#00A912"/>
<path d="M32.8866 54.0825H30.91V58.6444C30.91 63.4406 27.7905 67.455 23.65 68.4075C24.2602 68.5481 24.891 68.625 25.5389 68.625C30.5817 68.625 34.6878 64.1456 34.6878 58.6444V53.8987C34.1017 54.0131 33.5036 54.0825 32.8866 54.0825Z" fill="white"/>
<path d="M45.6122 83.5012V89.6006H37.9431V83.4675H35.4681V89.6006H12.619V83.4675H10.144V89.6006H2.47498V83.5012C2.47498 76.8037 7.46794 71.3569 13.6073 71.3569H14.0594C14.6695 76.5844 18.7687 80.6306 23.7239 80.6306H24.3598C29.315 80.6306 33.4142 76.5844 34.0243 71.3569H34.4833C40.6192 71.3569 45.6122 76.8056 45.6122 83.5012Z" fill="#00A912"/>
<path d="M89.7222 76.5975C100.37 76.5975 109.001 67.1812 109.001 55.5656C109.001 43.95 100.37 34.5338 89.7222 34.5338C79.0746 34.5338 70.443 43.95 70.443 55.5656C70.443 67.1812 79.0746 76.5975 89.7222 76.5975Z" fill="white"/>
<path d="M34.4867 68.6588H32.8625C32.1819 68.6588 31.6284 69.2625 31.6284 70.005C31.6284 74.3813 28.3662 77.9325 24.3616 77.9325H23.7256C19.7209 77.9325 16.4587 74.3813 16.4587 70.005C16.4587 69.2625 15.9053 68.6588 15.2247 68.6588H13.6073C6.10156 68.6588 0 75.315 0 83.5013V90.9469C0 91.695 0.553437 92.3006 1.23406 92.3006H46.8531C47.5337 92.3006 48.0872 91.6969 48.0872 90.9469V83.5013C48.0872 75.315 41.9856 68.6588 34.4867 68.6588ZM45.6122 89.6025H37.9431V83.4694H35.4681V89.6025H12.6191V83.4694H10.1441V89.6025H2.475V83.5031C2.475 76.8056 7.46797 71.3588 13.6073 71.3588H14.0594C14.6695 76.5863 18.7688 80.6325 23.7239 80.6325H24.3598C29.315 80.6325 33.4142 76.5863 34.0244 71.3588H34.4833C40.6158 71.3588 45.6087 76.8056 45.6087 83.5031V89.6025H45.6122ZM39.7255 34.8638C39.215 34.6856 38.6495 34.8975 38.3402 35.3794C38.3023 35.4413 34.1653 41.7881 29.26 41.7881H15.9105C12.8064 41.7881 10.2816 44.55 10.2816 47.9419C10.2816 49.6875 10.9553 51.2531 12.0261 52.3725V58.6444C12.0261 65.6363 17.2391 71.325 23.65 71.325C30.0592 71.325 35.2739 65.6381 35.2739 58.6444V52.9781C38.4227 51.2531 40.5952 47.7094 40.5952 43.6163V36.1575C40.5934 35.5631 40.2411 35.0419 39.7255 34.8638ZM32.7989 58.6425C32.7989 64.1438 28.6928 68.6231 23.65 68.6231C18.6072 68.6231 14.5011 64.1438 14.5011 58.6425V53.8688C14.9548 53.9925 15.4206 54.0825 15.9122 54.0825H30.9994C31.6164 54.0825 32.2145 54.0131 32.8006 53.8969L32.7989 58.6425ZM38.1184 43.6144C38.1184 47.9006 34.9198 51.3825 30.9977 51.3825H15.9105C14.1728 51.3825 12.7566 49.8375 12.7566 47.9344C12.7566 46.0388 14.1728 44.4938 15.9105 44.4938H29.2583C32.9536 44.4938 36.1213 41.9175 38.1167 39.7688L38.1184 43.6144ZM89.6552 84.4088C83.6739 93.6263 74.7639 99.7538 64.558 101.664C54.3572 103.573 44.0825 101.025 35.6314 94.5L34.1963 96.705C41.2414 102.144 49.4708 104.981 57.927 104.981C60.2697 104.981 62.6244 104.762 64.9722 104.321C75.833 102.294 85.317 95.7769 91.6764 85.9669L89.6552 84.4088ZM24.3616 33.9975L26.3828 35.5575C38.7234 16.53 62.9647 12.0038 80.4066 25.4738L81.8366 23.2688C63.2792 8.94002 37.4963 13.755 24.3616 33.9975ZM89.7188 33.4406C78.5366 33.4406 69.4444 43.3669 69.4444 55.5656C69.4444 67.7644 78.5366 77.6906 89.7188 77.6906C100.901 77.6906 110 67.7644 110 55.5656C110 43.3669 100.901 33.4406 89.7188 33.4406ZM84.0452 37.1719C83.3405 38.2088 82.6908 39.405 82.1253 40.7925C81.3502 40.395 80.6077 39.9131 79.8892 39.3919C81.168 38.4619 82.5653 37.7213 84.0452 37.1719ZM77.8628 41.1206C78.9336 41.9663 80.0473 42.7219 81.2436 43.3181C80.3052 46.4569 79.7191 50.1731 79.6125 54.2194H71.9813C72.3095 49.0275 74.513 44.3981 77.8628 41.1206ZM71.9813 56.9194H79.6125C79.7191 60.9581 80.3052 64.6744 81.2436 67.8131C80.0473 68.4113 78.9336 69.1725 77.8628 70.0106C74.513 66.735 72.3095 62.1131 71.9813 56.9194ZM79.8909 71.7431C80.6094 71.2275 81.3519 70.7475 82.127 70.3481C82.6942 71.7281 83.3422 72.93 84.0469 73.9613C82.5653 73.4194 81.168 72.6769 79.8909 71.7431ZM88.4847 74.7244C86.8914 74.0381 85.513 72.0525 84.4491 69.36C85.7588 68.9213 87.1131 68.6381 88.4847 68.535V74.7244ZM88.4847 65.8275C86.8158 65.9381 85.1727 66.2738 83.5931 66.8231C82.7372 63.8344 82.2078 60.3394 82.0944 56.9175H88.4847V65.8275ZM88.4847 54.2194H82.0944C82.2078 50.7919 82.7372 47.3025 83.5931 44.3081C85.1744 44.8575 86.8175 45.195 88.4847 45.3038V54.2194ZM88.4847 42.5981C87.1114 42.495 85.7588 42.2138 84.4491 41.7731C85.513 39.0881 86.8914 37.095 88.4847 36.4088V42.5981ZM107.463 54.2194H99.8319C99.7253 50.1731 99.1392 46.4569 98.2008 43.3181C99.3902 42.72 100.511 41.9644 101.582 41.1206C104.931 44.3981 107.135 49.0275 107.463 54.2194ZM99.5534 39.39C98.835 39.9188 98.0925 40.4006 97.3242 40.8056C96.757 39.4106 96.1022 38.2088 95.3975 37.1719C96.8773 37.7213 98.2764 38.4619 99.5534 39.39ZM90.9597 36.4088C92.5598 37.1025 93.9383 39.0938 95.0022 41.7863C93.6994 42.225 92.345 42.5006 90.9597 42.6038V36.4088ZM90.9597 45.3038C92.6286 45.1931 94.2717 44.8575 95.8512 44.3081C96.7072 47.3025 97.2366 50.7919 97.35 54.2194H90.9597V45.3038ZM90.9597 56.9194H97.35C97.2366 60.3394 96.7072 63.8363 95.8512 66.825C94.27 66.2756 92.6269 65.9381 90.9597 65.8294V56.9194ZM90.9597 74.7244V68.535C92.345 68.6381 93.6994 68.9063 95.0022 69.345C93.9383 72.045 92.5581 74.0363 90.9597 74.7244ZM95.3992 73.9613C96.1039 72.9244 96.7588 71.7225 97.3259 70.335C98.0942 70.7325 98.8367 71.2219 99.5552 71.7431C98.2764 72.6694 96.8773 73.4194 95.3992 73.9613ZM101.582 70.0106C100.511 69.1725 99.3902 68.4094 98.2008 67.8131C99.1392 64.6744 99.7253 60.9581 99.8319 56.9194H107.463C107.135 62.1131 104.931 66.735 101.582 70.0106Z" fill="black"/>
</svg>
